<?xml version="1.0" encoding="UTF-8" standalone="no"?>
<!-- Created with Inkscape (http://www.inkscape.org/) -->

<svg
   version="1.1"
   id="svg2"
   xml:space="preserve"
   width="4946.6665"
   height="4946.6665"
   viewBox="0 0 4946.6665 4946.6665"
   sodipodi:docname="ml.svg"
   inkscape:version="1.1 (c4e8f9ed74, 2021-05-24)"
   xmlns:inkscape="http://www.inkscape.org/namespaces/inkscape"
   xmlns:sodipodi="http://sodipodi.sourceforge.net/DTD/sodipodi-0.dtd"
   xmlns="http://www.w3.org/2000/svg"
   xmlns:svg="http://www.w3.org/2000/svg"><defs
     id="defs6"><clipPath
       clipPathUnits="userSpaceOnUse"
       id="clipPath20"><path
         d="m 16522.2,4677.4 c -439,0 -871.3,17.3 -1295.7,51.7 -1104.3,89.6 -2981,241.9 -4863.6,1095.4 l 11962.4,-177 C 20404,4996.3 18406.8,4677.4 16522.2,4677.4 m 8615.5,2203.5 c 8,196.8 15.1,420.9 21.4,668.8 7311.2,3408.4 7156.7,12849.3 7062.9,14594.7 -4.8,89.9 -73.3,149.9 -147.4,149.9 -29.1,0 -59,-9.2 -86.2,-29.6 -673,-501.4 -1297.5,-998.8 -1878.1,-1491.7 494.1,1654.1 740.4,3324.5 840.5,4863.8 2005.6,-3565.1 2097.8,-8288.3 428,-12114.1 C 30077.2,10540.5 27793.7,8340.8 25137.7,6880.9 M 7721.95,7619.2 C 3391.06,11867.9 3806,20194.7 7626.77,25693.6 c -23.88,-5931.4 43.94,-14876.4 95.18,-18074.4 m -820.48,16073.7 c -38.73,0 -76.13,-21.1 -95.12,-57.7 -27.19,-52.4 -6.69,-117 45.76,-144.1 105.88,-54.9 215.25,-105.9 325.13,-151.5 13.42,-5.6 27.32,-8.2 41,-8.2 32.25,0 63.24,14.7 83.59,40.2 6.12,7.6 11.26,16.2 15.21,25.7 22.66,54.6 -3.2,117.2 -57.72,139.8 -104.38,43.4 -208.27,91.7 -308.84,143.9 -15.69,8.1 -32.47,11.9 -49.01,11.9 m 18186.13,2132.5 c -25.2,1747 -50.1,3151.9 -69,3943.7 -15,631.1 -571,1165.9 -1323.5,1273.9 -1809,259.8 -4678.4,385.4 -7487.7,442.3 -0.8,1 -1.5,2 -2.3,2.9 -13,16.5 -32.3,25 -51.7,25 -14.4,0 -28.9,-4.7 -41.1,-14.3 -4.3,-3.4 -8.1,-7.3 -11.3,-11.4 -233.2,4.6 -466.8,8.7 -698.4,12.4 158.7,51.9 320,101.5 483.4,148.2 11.3,-7.8 24.4,-11.7 37.6,-11.7 17.1,0 34.2,6.6 47.1,19.8 1.6,1.6 3.1,3.3 4.5,5.1 3.6,4.5 6.6,9.4 8.8,14.5 1056.3,293.5 2208.1,472.5 3447.2,472.5 42.5,0 84.9,-0.2 127.5,-0.6 4164.1,-41.3 7226.8,-2091.4 8144.8,-2779.7 -1022.5,-1225.6 -1886.4,-2408.3 -2615.9,-3542.6"
         id="path18" /></clipPath><linearGradient
       x1="0"
       y1="0"
       x2="1"
       y2="0"
       gradientUnits="userSpaceOnUse"
       gradientTransform="matrix(-20376.9,21994.2,21994.2,20376.9,34086.7,940.901)"
       spreadMethod="pad"
       id="linearGradient26"><stop
         style="stop-opacity:1;stop-color:#dae3fe"
         offset="0"
         id="stop22" /><stop
         style="stop-opacity:1;stop-color:#e9effd"
         offset="1"
         id="stop24" /></linearGradient><clipPath
       clipPathUnits="userSpaceOnUse"
       id="clipPath44"><path
         d="m 23623.4,5628.5 c -9.2,0 -18.4,0 -27.7,0.2 l -1270.4,18.8 -11962.4,177 -571.36,8.5 c -1135.56,16.8 -2053.12,779 -2068.49,1718.4 -0.37,22.2 -0.74,45 -1.1,67.8 -51.24,3198 -119.06,12143 -95.18,18074.4 7.93,1969.2 25.97,3606.5 58.08,4590.5 18.49,566.9 483.26,1037.8 1113.25,1185 -0.98,-5.5 -1.55,-11.1 -1.68,-16.8 -1.23,-59 45.64,-107.9 104.69,-109.1 114.96,-2.4 231.29,-9.8 345.76,-22.1 3.85,-0.4 7.66,-0.6 11.45,-0.6 33.3,0 63.71,15.5 83.51,40.3 12.28,15.4 20.46,34.3 22.7,55.3 4.47,41.8 -15.8,80.6 -49.03,101.7 642.21,5.5 1450.3,10.1 2360.4,10.1 1125.4,0 2407,-7 3726.7,-28 231.6,-3.7 465.2,-7.8 698.4,-12.4 -18.2,-23.5 -18.6,-57.1 0.7,-81.4 33.2,-41.9 65.6,-85.3 96.3,-129.1 12.9,-18.4 33.4,-28.2 54.2,-28.2 13.1,0 26.3,3.9 37.8,12 5.3,3.7 9.9,8.1 13.7,12.9 17.9,22.3 19.7,54.5 2.5,79.1 -31.5,44.9 -64.7,89.5 -98.8,132.5 2809.3,-56.9 5678.7,-182.5 7487.7,-442.3 752.5,-108 1308.5,-642.8 1323.5,-1273.9 18.9,-791.8 43.8,-2196.7 69,-3943.7 33.5,-2310.6 67.5,-5219.4 89.3,-8093.6 0.7,-96.7 1.4,-192.9 2.1,-289.4 10.2,-1391.4 17.3,-2770 19.9,-4064 2.5,-1221.6 1,-2368.3 -5.7,-3378.6 -0.4,-57.7 -0.8,-114.8 -1.2,-171.5 -6.5,-883.9 -17.2,-1657 -32.9,-2278.6 -6.3,-247.9 -13.4,-472 -21.4,-668.8 -0.6,-14.8 -1.2,-29.4 -1.8,-43.9 -28.4,-676.4 -697.4,-1208.5 -1512.5,-1208.5 M 9747.94,30667.3 c -671.82,0 -1215.7,-434.6 -1213.59,-973.4 l 14.61,-22143.4 c 2.15,-548.5 554.73,-997 1240.91,-1007.2 L 23362.9,6342.5 c 6.1,-0.1 12.2,-0.1 18.3,-0.1 535.6,0 968.2,348.6 961.5,778.6 l -237.5,22673.9 c -6.1,388.9 -400.1,704.5 -886.5,710.2 l -13452.31,162 c -6.19,0.1 -12.29,0.2 -18.45,0.2 M 7757.08,23363.8 c -47.47,0 -90.86,-31.8 -103.42,-79.8 -14.96,-57.2 19.23,-115.6 76.37,-130.6 115.22,-30.1 233.24,-55.8 350.76,-76.1 6.17,-1.1 12.3,-1.6 18.35,-1.6 33.04,0 63.61,15.4 83.52,40.3 10.88,13.6 18.56,30.1 21.75,48.4 10.08,58.2 -28.92,113.6 -87.11,123.6 -111.65,19.4 -223.71,43.7 -333.1,72.3 -9.06,2.4 -18.16,3.5 -27.12,3.5 m 2942.12,7742.4 c -38.9,0 -76.3,-21.3 -95.4,-58.4 -26.8,-52.6 -5.9,-117 46.7,-143.8 102.3,-52.1 203.7,-109.4 301.6,-170.3 17.6,-10.9 37.1,-16.1 56.3,-16.1 31.8,0 62.9,14.1 83.6,40.1 2.7,3.3 5.1,6.7 7.4,10.4 31.2,50.1 15.8,116.1 -34.4,147.3 -103,64 -209.8,124.3 -317.3,179.1 -15.6,8 -32.2,11.7 -48.5,11.7 m 1003.7,296.9 c -20.6,0 -40.8,-9.5 -53.1,-27.7 -8.9,-12.6 -17.8,-25.2 -26.6,-38 -57.9,-83.8 -111.9,-171.4 -160.1,-260.1 -17.5,-32 -5.7,-72.1 26.4,-89.5 10,-5.5 20.8,-8.1 31.5,-8.1 19.7,0 38.9,8.9 51.6,24.8 2.4,3 4.6,6.2 6.5,9.7 46,84.6 97.5,168.1 153,248.3 8.3,12.2 16.6,24.1 25.1,35.8 21.2,29.7 14.5,71 -15.2,92.2 -11.8,8.5 -25.5,12.6 -39.1,12.6 m -1875.97,30.2 c -47.9,0 -91.47,-32.4 -103.7,-80.9 -14.37,-57.3 20.43,-115.4 77.69,-129.8 111.57,-28 223.18,-61.2 331.88,-98.7 11.6,-4 23.3,-5.8 34.9,-5.8 32.4,0 63.3,14.8 83.6,40.2 7.4,9.3 13.4,20 17.5,31.9 19.2,55.8 -10.4,116.7 -66.3,135.9 -114.4,39.5 -232.02,74.5 -349.51,103.9 -8.72,2.2 -17.46,3.3 -26.06,3.3"
         id="path42" /></clipPath><linearGradient
       x1="0"
       y1="0"
       x2="1"
       y2="0"
       gradientUnits="userSpaceOnUse"
       gradientTransform="matrix(381.061,25744.8,-28082.6,414.532,16224,5737.5)"
       spreadMethod="pad"
       id="linearGradient50"><stop
         style="stop-opacity:1;stop-color:#09005d"
         offset="0"
         id="stop46" /><stop
         style="stop-opacity:1;stop-color:#1a0f91"
         offset="1"
         id="stop48" /></linearGradient><clipPath
       clipPathUnits="userSpaceOnUse"
       id="clipPath62"><path
         d="m 23143.4,9091.6 c -157.5,482 -434.9,910.5 -798.4,1257.7 -459.7,439.1 -1057.1,748.3 -1724.2,871.5 0,0 -865.9,149.6 -1815.9,394.3 -310.3,80 -642.5,13 -891.4,-178.3 -663.7,-510 -1910,-1173.9 -3867.7,-1129.1 -1773.3,40.5 -2792.5,571.3 -3345.1,1028.2 -257.1,212.6 -611.3,288.2 -940.32,198 C 9045.11,11337.7 8450.2,11220.8 8450.2,11220.8 7255.59,11000.1 5736.82,10183.1 5379.99,9091.6 5038.13,8045.9 4773.22,6928.1 4736.01,5487 c -13.52,-524 194.96,-804.2 753.94,-804.2 L 23132,4532 c 559,0 717.2,682.3 703.6,1206.3 -37.2,1441.1 -350.3,2307.6 -692.2,3353.3 z"
         id="path60" /></clipPath><linearGradient
       x1="0"
       y1="0"
       x2="1"
       y2="0"
       gradientUnits="userSpaceOnUse"
       gradientTransform="matrix(3954.16,8377.46,8377.46,-3954.16,15035.4,8082)"
       spreadMethod="pad"
       id="linearGradient68"><stop
         style="stop-opacity:1;stop-color:#fe7062"
         offset="0"
         id="stop64" /><stop
         style="stop-opacity:1;stop-color:#ff928e"
         offset="1"
         id="stop66" /></linearGradient><clipPath
       clipPathUnits="userSpaceOnUse"
       id="clipPath78"><path
         d="m 14045.8,10218.5 c 2414,-58.9 4106.3,909.7 4598.5,1424.4 -978.7,303.3 -2256.8,823.6 -2272.1,1255.1 l -147.4,4156.1 H 12337.1 L 12189.7,12898 c -16.4,-460.6 -1506.3,-1062.1 -2429.32,-1371.7 394.62,-504.3 1997.62,-1252 4285.42,-1307.8 z"
         id="path76" /></clipPath><linearGradient
       x1="0"
       y1="0"
       x2="1"
       y2="0"
       gradientUnits="userSpaceOnUse"
       gradientTransform="matrix(201.06,3820.12,3820.12,-201.06,14123.4,10085.6)"
       spreadMethod="pad"
       id="linearGradient84"><stop
         style="stop-opacity:1;stop-color:#febbba"
         offset="0"
         id="stop80" /><stop
         style="stop-opacity:1;stop-color:#ff928e"
         offset="1"
         id="stop82" /></linearGradient><clipPath
       clipPathUnits="userSpaceOnUse"
       id="clipPath94"><path
         d="m 14284.7,13795.1 c -679.3,0 -1220.2,232.9 -1220.2,232.9 -1105.4,440.7 -1719,3357.4 -2000.3,5197.9 52.2,-31.9 112.8,-49.3 174.9,-49.3 45.3,0 91.4,9.3 135.7,28.9 123.2,54.7 201.8,178 198.8,312.8 -10.9,491.5 -1,1631.9 325.9,1631.9 703.3,0 657.2,-721.6 1853.4,-721.6 121.8,0 256.5,7.5 406.1,24 1197.8,131.9 1963.8,855.8 2325.5,855.8 127.4,0 204.6,-89.8 232.9,-326.7 79.7,-668.6 133.2,-1264.3 156,-1533.1 8,-94.8 63.3,-179 147,-224.3 v 0 c 43.1,-23.3 89,-34.2 134.1,-34.2 5.5,0 11,0.2 16.5,0.5 -224.4,-3769.4 -1673.2,-5087.6 -1673.2,-5087.6 -400.1,-233.4 -828.7,-307.9 -1213.1,-307.9 m -1356.6,9909.8 c -21.8,0 -43.5,0.9 -65.2,2.7 114.7,26.1 235.9,47.2 364,62.8 -100.9,-46.4 -200.1,-65.5 -298.8,-65.5"
         id="path92" /></clipPath><linearGradient
       x1="0"
       y1="0"
       x2="1"
       y2="0"
       gradientUnits="userSpaceOnUse"
       gradientTransform="matrix(-603.186,10254,10254,603.186,14534.2,12249.8)"
       spreadMethod="pad"
       id="linearGradient100"><stop
         style="stop-opacity:1;stop-color:#febbba"
         offset="0"
         id="stop96" /><stop
         style="stop-opacity:1;stop-color:#ff928e"
         offset="1"
         id="stop98" /></linearGradient><clipPath
       clipPathUnits="userSpaceOnUse"
       id="clipPath110"><path
         d="m 16870.2,18609 c 0,0 276.9,830.7 738.4,830.7 461.4,0 -92.3,-2215.1 -738.4,-2215.1 z"
         id="path108" /></clipPath><linearGradient
       x1="0"
       y1="0"
       x2="1"
       y2="0"
       gradientUnits="userSpaceOnUse"
       gradientTransform="matrix(-603.184,10254,10254,603.184,17661.9,12433.8)"
       spreadMethod="pad"
       id="linearGradient116"><stop
         style="stop-opacity:1;stop-color:#febbba"
         offset="0"
         id="stop112" /><stop
         style="stop-opacity:1;stop-color:#ff928e"
         offset="1"
         id="stop114" /></linearGradient><clipPath
       clipPathUnits="userSpaceOnUse"
       id="clipPath126"><path
         d="m 11477.9,18798.5 c 0,0 -380.7,703.4 -838,641.2 -457.2,-62.2 197.8,-2298.4 838,-2211.3 z"
         id="path124" /></clipPath><linearGradient
       x1="0"
       y1="0"
       x2="1"
       y2="0"
       gradientUnits="userSpaceOnUse"
       gradientTransform="matrix(-603.184,10254,10254,603.184,11386.3,12064.6)"
       spreadMethod="pad"
       id="linearGradient132"><stop
         style="stop-opacity:1;stop-color:#febbba"
         offset="0"
         id="stop128" /><stop
         style="stop-opacity:1;stop-color:#ff928e"
         offset="1"
         id="stop130" /></linearGradient><clipPath
       clipPathUnits="userSpaceOnUse"
       id="clipPath142"><path
         d="m 11239.1,19176.6 c -62.1,0 -122.7,17.4 -174.9,49.3 -62.3,38.1 -112.6,96.7 -139.6,171.1 -116.5,320.6 -295.3,808 -440.2,1180.4 -235.8,606.5 -1482.39,1381.4 -168.4,2897.5 392.5,452.9 734.2,623.6 1043.7,652.1 -55.5,-44.8 -112.3,-88.2 -169.8,-129.8 -47.8,-34.7 -58.6,-101.4 -24,-149.3 20.9,-28.9 53.6,-44.3 86.8,-44.3 21.7,0 43.6,6.6 62.5,20.3 96.7,69.9 191.5,144.7 281.7,222.3 5.1,4.5 9.7,9.3 13.8,14.4 13.3,16.6 21,36.4 22.9,56.7 208.4,-32.4 403.3,-115.8 591.5,-199.2 218.1,-96.6 427.2,-193.3 637.8,-210.5 21.7,-1.8 43.4,-2.7 65.2,-2.7 98.7,0 197.9,19.1 298.8,65.5 7.2,3.3 14.5,6.8 21.7,10.4 673.9,335.5 1448.9,1012.7 2185.2,1012.7 219.1,0 434.8,-60 643.4,-206.8 909.7,-640.1 303.3,-1246.6 606.5,-1415 28.4,-15.8 58.3,-22.4 89.4,-22.4 80.8,0 169.9,44.6 262.9,89.2 93,44.7 189.9,89.3 286.4,89.3 166.5,0 331.7,-132.8 473.1,-627.8 260.7,-912.4 -163.9,-2592 -369.5,-3305.5 -34.6,-120.5 -140.5,-197.1 -255,-203.9 -5.5,-0.3 -11,-0.5 -16.5,-0.5 -45.1,0 -91,10.9 -134.1,34.2 v 0 c -83.7,45.3 -139,129.5 -147,224.3 -22.8,268.8 -76.3,864.5 -156,1533.1 -28.3,236.9 -105.5,326.7 -232.9,326.7 -361.7,0 -1127.7,-723.9 -2325.5,-855.8 -149.6,-16.5 -284.3,-24 -406.1,-24 -1196.2,0 -1150.1,721.6 -1853.4,721.6 -326.9,0 -336.8,-1140.4 -325.9,-1631.9 3,-134.8 -75.6,-258.1 -198.8,-312.8 -44.3,-19.6 -90.4,-28.9 -135.7,-28.9 m 108.6,3994.5 c -3,0 -6.1,-0.8 -8.8,-2.5 -349.8,-217.9 -821.9,-566.6 -883.5,-1075.6 -44,-362.7 132.4,-704 303,-1034 175.4,-339.4 356.7,-690.3 287,-1055.4 -1.7,-9.1 4.2,-17.8 13.3,-19.6 1.1,-0.2 2.2,-0.3 3.2,-0.3 7.9,0 14.9,5.6 16.4,13.6 71.9,376.5 -112.2,732.6 -290.2,1077 -168.2,325.6 -342.2,662.2 -299.5,1014.6 60,494.8 524.1,836.9 868,1051.3 7.8,4.9 10.2,15.2 5.4,23.1 -3.2,5.1 -8.7,7.8 -14.3,7.8 m 204,424.6 c -0.4,0 -0.7,0 -1,-0.1 -372.6,-28 -734.1,-206.3 -993.4,-483.5 -129.3,-138.9 -233,-303 -301.8,-480.2 -69.8,-177.1 -105.2,-366.5 -110.7,-556.2 -2.7,-189.7 25.8,-380.8 90.8,-559.2 30.7,-89.6 71.5,-174.7 114.6,-257.8 42.8,-83.2 90.8,-163 138.6,-242.3 97,-157.9 195.8,-312.8 282.6,-473.8 41.9,-81 81,-163.6 112.2,-249.3 8.2,-21.2 14.2,-43.2 21.5,-64.8 6.9,-21.9 14.7,-43.2 18.5,-64.4 8.4,-41.6 7,-89.9 -26,-111.4 -5.6,-3.7 -7.6,-11.1 -4.3,-17.1 2.4,-4.2 6.8,-6.6 11.3,-6.6 2.1,0 4.3,0.5 6.3,1.6 24,13.5 39.4,39.4 44.6,64.4 5.7,25.2 4.9,50.3 1.8,74.5 -2.9,24.6 -9.7,47.1 -15.8,69.5 -6.4,22.4 -11.6,45.3 -19,67.5 -28,89.2 -64.2,175.5 -103.3,260.1 -79.7,168.7 -177.7,326.6 -268.7,486.2 -91,159.4 -177,321.2 -233.8,491.9 -59.5,169.5 -82.6,349.8 -79,528.7 10.1,358.4 146.1,711.7 385.1,979 239.5,266.6 570.2,454 931,517.7 6.5,1.1 11.2,7 10.7,13.6 -0.5,6.8 -6.1,12 -12.8,12 M 13414,21303.4 c -1.1,0 -2.2,-0.1 -3.3,-0.4 -6.8,-1.8 -11,-8.9 -9.2,-15.7 27.1,-103.1 89,-197 172.1,-264.2 81.9,-69 181,-115.3 284.6,-141.4 58,-14.2 117.6,-20.6 177.1,-20.6 47.5,0 94.9,4.1 141.4,11.5 105.4,15.9 206.9,48.9 304.3,89.1 97,41.1 190.3,89.6 280.5,142.1 90.4,52.1 178.7,107.4 265.5,164.5 174,113.5 343.6,232.3 516.9,343.7 86.4,56.2 174.4,109.1 263.2,160.4 89.9,49 179.7,98.4 273.1,139.2 92.5,43.3 188.7,76.6 285.3,107.9 49.1,12.5 98,27.4 147.2,38 49.3,10.4 99,18 148.5,21.6 20,1.4 40.1,2.2 60.1,2.2 78.8,0 156.9,-12 226.8,-44.7 l 16.3,-7.6 15.6,-9.2 c 10.3,-6.2 21,-12 31.2,-18.6 19,-14.9 39.4,-28.1 56.2,-45.9 36.1,-32.6 65.6,-72.6 91.1,-114.9 l 18.6,-32.3 16.1,-33.9 c 11.1,-22.3 19.6,-46.1 29.1,-69.5 16.8,-47.6 31.6,-96.2 42.6,-146.1 23.1,-99.5 35.6,-201.9 47.2,-304.5 0.8,-6.5 6.3,-11.6 12.8,-11.6 0.2,0 0.4,0 0.6,0 7.1,0.3 12.6,6.3 12.3,13.5 -4.5,103.7 -12,207.8 -31.1,311.1 -18.9,103 -46.8,206.8 -100,301.1 -26.4,46.9 -57.8,92.1 -97.4,130.3 -18.4,20.4 -41.1,36.4 -62.4,53.9 -11.3,7.8 -23.2,14.8 -34.9,22.2 l -17.5,11 -18.6,9.3 c -49.5,24.9 -103.1,40.7 -157,49.2 -38,6.2 -76.2,9.1 -114.1,9.1 -16.1,0 -32.2,-0.5 -48.1,-1.5 -215.2,-15.1 -416.5,-83.4 -608.8,-167.7 -96.5,-41.8 -189,-91.2 -280.2,-142.4 -90.1,-52.9 -179.2,-107.3 -265.9,-164.6 -174.3,-113.7 -343.1,-233.7 -515.1,-347.5 -85.7,-57.5 -173,-111.9 -260.6,-165.6 -87.6,-53.4 -177.4,-102.4 -270.2,-144 -93,-40.6 -189.2,-74 -288.5,-91.1 -50.1,-9 -100.8,-13.9 -151.3,-13.9 -49.4,0 -98.7,4.7 -147.1,14.5 -97.6,21.2 -192.3,61.5 -271.2,123.6 -79.7,60.7 -141.2,145 -171.4,241.1 l -0.1,0.3 c -1.8,5.5 -6.8,9 -12.3,9 m -2643.3,2413.9 c -16.9,0 -34.1,-4 -50.1,-12.5 -99.7,-53.1 -203.1,-102.5 -307.3,-147.2 -54.3,-23.2 -79.4,-86.1 -56.2,-140.4 17.4,-40.5 56.9,-64.8 98.4,-64.8 14,0 28.3,2.8 42,8.6 109.7,47 218.6,99.1 323.5,155 13.3,7 24.5,16.5 33.4,27.6 25.8,32.3 31.5,78.1 10.8,117 -19.2,36.1 -56.2,56.7 -94.5,56.7"
         id="path140" /></clipPath><linearGradient
       x1="0"
       y1="0"
       x2="1"
       y2="0"
       gradientUnits="userSpaceOnUse"
       gradientTransform="matrix(0,-5093.49,-5093.49,0,13800.5,25665.5)"
       spreadMethod="pad"
       id="linearGradient148"><stop
         style="stop-opacity:1;stop-color:#09005d"
         offset="0"
         id="stop144" /><stop
         style="stop-opacity:1;stop-color:#1a0f91"
         offset="1"
         id="stop146" /></linearGradient><clipPath
       clipPathUnits="userSpaceOnUse"
       id="clipPath158"><path
         d="m 10904.6,20029 c -4.5,0 -8.9,2.4 -11.3,6.6 -3.3,6 -1.3,13.4 4.3,17.1 33,21.5 34.4,69.8 26,111.4 -3.8,21.2 -11.6,42.5 -18.5,64.4 -7.3,21.6 -13.3,43.6 -21.5,64.8 -31.2,85.7 -70.3,168.3 -112.2,249.3 -86.8,161 -185.6,315.9 -282.6,473.8 -47.8,79.3 -95.8,159.1 -138.6,242.3 -43.1,83.1 -83.9,168.2 -114.6,257.8 -65,178.4 -93.5,369.5 -90.8,559.2 5.5,189.7 40.9,379.1 110.7,556.2 68.8,177.2 172.5,341.3 301.8,480.2 259.3,277.2 620.8,455.5 993.4,483.5 0.3,0.1 0.6,0.1 1,0.1 6.7,0 12.3,-5.2 12.8,-12 0.5,-6.6 -4.2,-12.5 -10.7,-13.6 -360.8,-63.7 -691.5,-251.1 -931,-517.7 -239,-267.3 -375,-620.6 -385.1,-979 -3.6,-178.9 19.5,-359.2 79,-528.7 56.8,-170.7 142.8,-332.5 233.8,-491.9 91,-159.6 189,-317.5 268.7,-486.2 39.1,-84.6 75.3,-170.9 103.3,-260.1 7.4,-22.2 12.6,-45.1 19,-67.5 6.1,-22.4 12.9,-44.9 15.8,-69.5 3.1,-24.2 3.9,-49.3 -1.8,-74.5 -5.2,-25 -20.6,-50.9 -44.6,-64.4 -2,-1.1 -4.2,-1.6 -6.3,-1.6"
         id="path156" /></clipPath><linearGradient
       x1="0"
       y1="0"
       x2="1"
       y2="0"
       gradientUnits="userSpaceOnUse"
       gradientTransform="matrix(0,-5093.49,-5093.49,0,13800.5,25665.5)"
       spreadMethod="pad"
       id="linearGradient164"><stop
         style="stop-opacity:1;stop-color:#554f8f"
         offset="0"
         id="stop160" /><stop
         style="stop-opacity:1;stop-color:#6159b3"
         offset="1"
         id="stop162" /></linearGradient><clipPath
       clipPathUnits="userSpaceOnUse"
       id="clipPath174"><path
         d="m 11061.9,19983.7 c -1,0 -2.1,0.1 -3.2,0.3 -9.1,1.8 -15,10.5 -13.3,19.6 69.7,365.1 -111.6,716 -287,1055.4 -170.6,330 -347,671.3 -303,1034 61.6,509 533.7,857.7 883.5,1075.6 2.7,1.7 5.8,2.5 8.8,2.5 5.6,0 11.1,-2.7 14.3,-7.8 4.8,-7.9 2.4,-18.2 -5.4,-23.1 -343.9,-214.4 -808,-556.5 -868,-1051.3 -42.7,-352.4 131.3,-689 299.5,-1014.6 178,-344.4 362.1,-700.5 290.2,-1077 -1.5,-8 -8.5,-13.6 -16.4,-13.6"
         id="path172" /></clipPath><linearGradient
       x1="0"
       y1="0"
       x2="1"
       y2="0"
       gradientUnits="userSpaceOnUse"
       gradientTransform="matrix(0,-5093.49,-5093.49,0,13800.5,25665.5)"
       spreadMethod="pad"
       id="linearGradient180"><stop
         style="stop-opacity:1;stop-color:#554f8f"
         offset="0"
         id="stop176" /><stop
         style="stop-opacity:1;stop-color:#6159b3"
         offset="1"
         id="stop178" /></linearGradient><clipPath
       clipPathUnits="userSpaceOnUse"
       id="clipPath190"><path
         d="m 14035.3,20861.1 c -59.5,0 -119.1,6.4 -177.1,20.6 -103.6,26.1 -202.7,72.4 -284.6,141.4 -83.1,67.2 -145,161.1 -172.1,264.2 -1.8,6.8 2.4,13.9 9.2,15.7 1.1,0.3 2.2,0.4 3.3,0.4 5.5,0 10.5,-3.5 12.3,-9 l 0.1,-0.3 c 30.2,-96.1 91.7,-180.4 171.4,-241.1 78.9,-62.1 173.6,-102.4 271.2,-123.6 48.4,-9.8 97.7,-14.5 147.1,-14.5 50.5,0 101.2,4.9 151.3,13.9 99.3,17.1 195.5,50.5 288.5,91.1 92.8,41.6 182.6,90.6 270.2,144 87.6,53.7 174.9,108.1 260.6,165.6 172,113.8 340.8,233.8 515.1,347.5 86.7,57.3 175.8,111.7 265.9,164.6 91.2,51.2 183.7,100.6 280.2,142.4 192.3,84.3 393.6,152.6 608.8,167.7 15.9,1 32,1.5 48.1,1.5 37.9,0 76.1,-2.9 114.1,-9.1 53.9,-8.5 107.5,-24.3 157,-49.2 l 18.6,-9.3 17.5,-11 c 11.7,-7.4 23.6,-14.4 34.9,-22.2 21.3,-17.5 44,-33.5 62.4,-53.9 39.6,-38.2 71,-83.4 97.4,-130.3 53.2,-94.3 81.1,-198.1 100,-301.1 19.1,-103.3 26.6,-207.4 31.1,-311.1 0.3,-7.2 -5.2,-13.2 -12.3,-13.5 -0.2,0 -0.4,0 -0.6,0 -6.5,0 -12,5.1 -12.8,11.6 -11.6,102.6 -24.1,205 -47.2,304.5 -11,49.9 -25.8,98.5 -42.6,146.1 -9.5,23.4 -18,47.2 -29.1,69.5 l -16.1,33.9 -18.6,32.3 c -25.5,42.3 -55,82.3 -91.1,114.9 -16.8,17.8 -37.2,31 -56.2,45.9 -10.2,6.6 -20.9,12.4 -31.2,18.6 l -15.6,9.2 -16.3,7.6 c -69.9,32.7 -148,44.7 -226.8,44.7 -20,0 -40.1,-0.8 -60.1,-2.2 -49.5,-3.6 -99.2,-11.2 -148.5,-21.6 -49.2,-10.6 -98.1,-25.5 -147.2,-38 -96.6,-31.3 -192.8,-64.6 -285.3,-107.9 -93.4,-40.8 -183.2,-90.2 -273.1,-139.2 -88.8,-51.3 -176.8,-104.2 -263.2,-160.4 -173.3,-111.4 -342.9,-230.2 -516.9,-343.7 -86.8,-57.1 -175.1,-112.4 -265.5,-164.5 -90.2,-52.5 -183.5,-101 -280.5,-142.1 -97.4,-40.2 -198.9,-73.2 -304.3,-89.1 -46.5,-7.4 -93.9,-11.5 -141.4,-11.5"
         id="path188" /></clipPath><linearGradient
       x1="0"
       y1="0"
       x2="1"
       y2="0"
       gradientUnits="userSpaceOnUse"
       gradientTransform="matrix(0,-5093.49,-5093.49,0,13800.5,25665.5)"
       spreadMethod="pad"
       id="linearGradient196"><stop
         style="stop-opacity:1;stop-color:#554f8f"
         offset="0"
         id="stop192" /><stop
         style="stop-opacity:1;stop-color:#6159b3"
         offset="1"
         id="stop194" /></linearGradient><clipPath
       clipPathUnits="userSpaceOnUse"
       id="clipPath208"><path
         d="m 14735.4,19225.6 v 0 c 0,-73.6 71.9,-125.9 141.7,-102.7 338.4,112.4 1214.5,339.6 1876.7,-51.7 0,0 -370.1,851.1 -1949.1,255.3 -41.8,-15.8 -69.3,-56.2 -69.3,-100.9 z"
         id="path206" /></clipPath><linearGradient
       x1="0"
       y1="0"
       x2="1"
       y2="0"
       gradientUnits="userSpaceOnUse"
       gradientTransform="matrix(72.1619,713.604,713.604,-72.1619,15726.6,18972.9)"
       spreadMethod="pad"
       id="linearGradient214"><stop
         style="stop-opacity:1;stop-color:#09005d"
         offset="0"
         id="stop210" /><stop
         style="stop-opacity:1;stop-color:#1a0f91"
         offset="1"
         id="stop212" /></linearGradient><clipPath
       clipPathUnits="userSpaceOnUse"
       id="clipPath224"><path
         d="m 13599.1,19225.6 v 0 c 0,-73.6 -71.9,-125.9 -141.7,-102.7 -338.3,112.4 -1214.5,339.6 -1876.6,-51.7 0,0 370,851.1 1949,255.3 41.8,-15.8 69.3,-56.2 69.3,-100.9 z"
         id="path222" /></clipPath><linearGradient
       x1="0"
       y1="0"
       x2="1"
       y2="0"
       gradientUnits="userSpaceOnUse"
       gradientTransform="matrix(-72.1619,713.604,-713.604,-72.1619,12608,18972.9)"
       spreadMethod="pad"
       id="linearGradient230"><stop
         style="stop-opacity:1;stop-color:#09005d"
         offset="0"
         id="stop226" /><stop
         style="stop-opacity:1;stop-color:#1a0f91"
         offset="1"
         id="stop228" /></linearGradient><clipPath
       clipPathUnits="userSpaceOnUse"
       id="clipPath282"><path
         d="m 11008.4,30717.6 c -19.2,0 -38.7,5.2 -56.3,16.1 -97.9,60.9 -199.3,118.2 -301.6,170.3 -52.6,26.8 -73.5,91.2 -46.7,143.8 19.1,37.1 56.5,58.4 95.4,58.4 16.3,0 32.9,-3.7 48.5,-11.7 107.5,-54.8 214.3,-115.1 317.3,-179.1 50.2,-31.2 65.6,-97.2 34.4,-147.3 -2.3,-3.7 -4.7,-7.1 -7.4,-10.4 -20.7,-26 -51.8,-40.1 -83.6,-40.1"
         id="path280" /></clipPath><linearGradient
       x1="0"
       y1="0"
       x2="1"
       y2="0"
       gradientUnits="userSpaceOnUse"
       gradientTransform="matrix(381.061,25744.8,-28082.6,414.532,16224,5737.5)"
       spreadMethod="pad"
       id="linearGradient288"><stop
         style="stop-opacity:1;stop-color:#3f3f8d"
         offset="0"
         id="stop284" /><stop
         style="stop-opacity:1;stop-color:#4b49b1"
         offset="1"
         id="stop286" /></linearGradient><clipPath
       clipPathUnits="userSpaceOnUse"
       id="clipPath300"><path
         d="m 10167.7,31118.1 c -11.6,0 -23.3,1.8 -34.9,5.8 -108.7,37.5 -220.31,70.7 -331.88,98.7 -57.26,14.4 -92.06,72.5 -77.69,129.8 12.23,48.5 55.8,80.9 103.7,80.9 8.6,0 17.34,-1.1 26.06,-3.3 117.49,-29.4 235.11,-64.4 349.51,-103.9 55.9,-19.2 85.5,-80.1 66.3,-135.9 -4.1,-11.9 -10.1,-22.6 -17.5,-31.9 -20.3,-25.4 -51.2,-40.2 -83.6,-40.2"
         id="path298" /></clipPath><linearGradient
       x1="0"
       y1="0"
       x2="1"
       y2="0"
       gradientUnits="userSpaceOnUse"
       gradientTransform="matrix(381.061,25744.8,-28082.6,414.532,16224,5737.5)"
       spreadMethod="pad"
       id="linearGradient306"><stop
         style="stop-opacity:1;stop-color:#3f3f8d"
         offset="0"
         id="stop302" /><stop
         style="stop-opacity:1;stop-color:#4b49b1"
         offset="1"
         id="stop304" /></linearGradient><clipPath
       clipPathUnits="userSpaceOnUse"
       id="clipPath318"><path
         d="m 9258.32,31320.5 c -3.79,0 -7.6,0.2 -11.45,0.6 -114.47,12.3 -230.8,19.7 -345.76,22.1 -59.05,1.2 -105.92,50.1 -104.69,109.1 0.13,5.7 0.7,11.3 1.68,16.8 128.07,29.9 262.9,46.4 402.28,47.7 37.79,0.3 76.09,0.7 115.12,1 33.23,-21.1 53.5,-59.9 49.03,-101.7 -2.24,-21 -10.42,-39.9 -22.7,-55.3 -19.8,-24.8 -50.21,-40.3 -83.51,-40.3"
         id="path316" /></clipPath><linearGradient
       x1="0"
       y1="0"
       x2="1"
       y2="0"
       gradientUnits="userSpaceOnUse"
       gradientTransform="matrix(381.061,25744.8,-28082.6,414.532,16224,5737.5)"
       spreadMethod="pad"
       id="linearGradient324"><stop
         style="stop-opacity:1;stop-color:#3f3f8d"
         offset="0"
         id="stop320" /><stop
         style="stop-opacity:1;stop-color:#4b49b1"
         offset="1"
         id="stop322" /></linearGradient><clipPath
       clipPathUnits="userSpaceOnUse"
       id="clipPath340"><path
         d="m 8099.14,23075.7 c -6.05,0 -12.18,0.5 -18.35,1.6 -117.52,20.3 -235.54,46 -350.76,76.1 -57.14,15 -91.33,73.4 -76.37,130.6 12.56,48 55.95,79.8 103.42,79.8 8.96,0 18.06,-1.1 27.12,-3.5 109.39,-28.6 221.45,-52.9 333.1,-72.3 58.19,-10 97.19,-65.4 87.11,-123.6 -3.19,-18.3 -10.87,-34.8 -21.75,-48.4 -19.91,-24.9 -50.48,-40.3 -83.52,-40.3"
         id="path338" /></clipPath><linearGradient
       x1="0"
       y1="0"
       x2="1"
       y2="0"
       gradientUnits="userSpaceOnUse"
       gradientTransform="matrix(381.061,25744.8,-28082.6,414.532,16224,5737.5)"
       spreadMethod="pad"
       id="linearGradient346"><stop
         style="stop-opacity:1;stop-color:#3f3f8d"
         offset="0"
         id="stop342" /><stop
         style="stop-opacity:1;stop-color:#4b49b1"
         offset="1"
         id="stop344" /></linearGradient><clipPath
       clipPathUnits="userSpaceOnUse"
       id="clipPath358"><path
         d="m 7218.24,23331.4 c -13.68,0 -27.58,2.6 -41,8.2 -109.88,45.6 -219.25,96.6 -325.13,151.5 -52.45,27.1 -72.95,91.7 -45.76,144.1 18.99,36.6 56.39,57.7 95.12,57.7 16.54,0 33.32,-3.8 49.01,-11.9 100.57,-52.2 204.46,-100.5 308.84,-143.9 54.52,-22.6 80.38,-85.2 57.72,-139.8 -3.95,-9.5 -9.09,-18.1 -15.21,-25.7 -20.35,-25.5 -51.34,-40.2 -83.59,-40.2"
         id="path356" /></clipPath><linearGradient
       x1="0"
       y1="0"
       x2="1"
       y2="0"
       gradientUnits="userSpaceOnUse"
       gradientTransform="matrix(-20376.9,21994.2,21994.2,20376.9,34086.7,940.901)"
       spreadMethod="pad"
       id="linearGradient364"><stop
         style="stop-opacity:1;stop-color:#d1ddfd"
         offset="0"
         id="stop360" /><stop
         style="stop-opacity:1;stop-color:#dce6fc"
         offset="1"
         id="stop362" /></linearGradient><clipPath
       clipPathUnits="userSpaceOnUse"
       id="clipPath374"><path
         d="m 10455.5,23352.4 c -41.5,0 -81,24.3 -98.4,64.8 -23.2,54.3 1.9,117.2 56.2,140.4 104.2,44.7 207.6,94.1 307.3,147.2 16,8.5 33.2,12.5 50.1,12.5 38.3,0 75.3,-20.6 94.5,-56.7 20.7,-38.9 15,-84.7 -10.8,-117 -8.9,-11.1 -20.1,-20.6 -33.4,-27.6 -104.9,-55.9 -213.8,-108 -323.5,-155 -13.7,-5.8 -28,-8.6 -42,-8.6"
         id="path372" /></clipPath><linearGradient
       x1="0"
       y1="0"
       x2="1"
       y2="0"
       gradientUnits="userSpaceOnUse"
       gradientTransform="matrix(0,-5093.49,-5093.49,0,13800.5,25665.5)"
       spreadMethod="pad"
       id="linearGradient380"><stop
         style="stop-opacity:1;stop-color:#3f3f8d"
         offset="0"
         id="stop376" /><stop
         style="stop-opacity:1;stop-color:#4b49b1"
         offset="1"
         id="stop378" /></linearGradient><clipPath
       clipPathUnits="userSpaceOnUse"
       id="clipPath394"><path
         d="m 11252.7,23803.6 c -33.2,0 -65.9,15.4 -86.8,44.3 -34.6,47.9 -23.8,114.6 24,149.3 57.5,41.6 114.3,85 169.8,129.8 32.5,2.9 64.6,4.3 96.5,4.3 60.3,0 119.3,-5 177.4,-14 -1.9,-20.3 -9.6,-40.1 -22.9,-56.7 -4.1,-5.1 -8.7,-9.9 -13.8,-14.4 -90.2,-77.6 -185,-152.4 -281.7,-222.3 -18.9,-13.7 -40.8,-20.3 -62.5,-20.3"
         id="path392" /></clipPath><linearGradient
       x1="0"
       y1="0"
       x2="1"
       y2="0"
       gradientUnits="userSpaceOnUse"
       gradientTransform="matrix(0,-5093.49,-5093.49,0,13800.5,25665.5)"
       spreadMethod="pad"
       id="linearGradient400"><stop
         style="stop-opacity:1;stop-color:#3f3f8d"
         offset="0"
         id="stop396" /><stop
         style="stop-opacity:1;stop-color:#4b49b1"
         offset="1"
         id="stop398" /></linearGradient><clipPath
       clipPathUnits="userSpaceOnUse"
       id="clipPath420"><path
         d="m 16207.4,31485.3 c -35.6,0.8 -70.9,1.5 -106.4,2.2 3.2,4.1 7,8 11.3,11.4 12.2,9.6 26.7,14.3 41.1,14.3 19.4,0 38.7,-8.5 51.7,-25 0.8,-0.9 1.5,-1.9 2.3,-2.9"
         id="path418" /></clipPath><linearGradient
       x1="0"
       y1="0"
       x2="1"
       y2="0"
       gradientUnits="userSpaceOnUse"
       gradientTransform="matrix(-20376.9,21994.2,21994.2,20376.9,34086.7,940.901)"
       spreadMethod="pad"
       id="linearGradient426"><stop
         style="stop-opacity:1;stop-color:#d1ddfd"
         offset="0"
         id="stop422" /><stop
         style="stop-opacity:1;stop-color:#dce6fc"
         offset="1"
         id="stop424" /></linearGradient><clipPath
       clipPathUnits="userSpaceOnUse"
       id="clipPath436"><path
         d="m 16252.2,31248.8 c -20.8,0 -41.3,9.8 -54.2,28.2 -30.7,43.8 -63.1,87.2 -96.3,129.1 -19.3,24.3 -18.9,57.9 -0.7,81.4 35.5,-0.7 70.8,-1.4 106.4,-2.2 34.1,-43 67.3,-87.6 98.8,-132.5 17.2,-24.6 15.4,-56.8 -2.5,-79.1 -3.8,-4.8 -8.4,-9.2 -13.7,-12.9 -11.5,-8.1 -24.7,-12 -37.8,-12"
         id="path434" /></clipPath><linearGradient
       x1="0"
       y1="0"
       x2="1"
       y2="0"
       gradientUnits="userSpaceOnUse"
       gradientTransform="matrix(381.061,25744.8,-28082.6,414.532,16224,5737.5)"
       spreadMethod="pad"
       id="linearGradient442"><stop
         style="stop-opacity:1;stop-color:#3f3f8d"
         offset="0"
         id="stop438" /><stop
         style="stop-opacity:1;stop-color:#4b49b1"
         offset="1"
         id="stop440" /></linearGradient><clipPath
       clipPathUnits="userSpaceOnUse"
       id="clipPath452"><path
         d="m 11521,30979.7 c -10.7,0 -21.5,2.6 -31.5,8.1 -32.1,17.4 -43.9,57.5 -26.4,89.5 48.2,88.7 102.2,176.3 160.1,260.1 8.8,12.8 17.7,25.4 26.6,38 12.3,18.2 32.5,27.7 53.1,27.7 13.6,0 27.3,-4.1 39.1,-12.6 29.7,-21.2 36.4,-62.5 15.2,-92.2 -8.5,-11.7 -16.8,-23.6 -25.1,-35.8 -55.5,-80.2 -107,-163.7 -153,-248.3 -1.9,-3.5 -4.1,-6.7 -6.5,-9.7 -12.7,-15.9 -31.9,-24.8 -51.6,-24.8"
         id="path450" /></clipPath><linearGradient
       x1="0"
       y1="0"
       x2="1"
       y2="0"
       gradientUnits="userSpaceOnUse"
       gradientTransform="matrix(381.061,25744.8,-28082.6,414.532,16224,5737.5)"
       spreadMethod="pad"
       id="linearGradient458"><stop
         style="stop-opacity:1;stop-color:#3f3f8d"
         offset="0"
         id="stop454" /><stop
         style="stop-opacity:1;stop-color:#4b49b1"
         offset="1"
         id="stop456" /></linearGradient><clipPath
       clipPathUnits="userSpaceOnUse"
       id="clipPath470"><path
         d="m 15923.6,31636.4 c -13.2,0 -26.3,3.9 -37.6,11.7 32.4,9.3 65.5,18.6 98,27.7 -2.2,-5.1 -5.2,-10 -8.8,-14.5 -1.4,-1.8 -2.9,-3.5 -4.5,-5.1 -12.9,-13.2 -30,-19.8 -47.1,-19.8"
         id="path468" /></clipPath><linearGradient
       x1="0"
       y1="0"
       x2="1"
       y2="0"
       gradientUnits="userSpaceOnUse"
       gradientTransform="matrix(-20376.9,21994.2,21994.2,20376.9,34086.7,940.901)"
       spreadMethod="pad"
       id="linearGradient476"><stop
         style="stop-opacity:1;stop-color:#d1ddfd"
         offset="0"
         id="stop472" /><stop
         style="stop-opacity:1;stop-color:#dce6fc"
         offset="1"
         id="stop474" /></linearGradient><clipPath
       clipPathUnits="userSpaceOnUse"
       id="clipPath498"><path
         d="m 27973,20063 h -4925.7 v 1457.6 H 27973 Z"
         id="path496" /></clipPath><linearGradient
       x1="0"
       y1="0"
       x2="1"
       y2="0"
       gradientUnits="userSpaceOnUse"
       gradientTransform="matrix(4925.69,0,0,-4925.69,23047.3,20791.8)"
       spreadMethod="pad"
       id="linearGradient504"><stop
         style="stop-opacity:1;stop-color:#09005d"
         offset="0"
         id="stop500" /><stop
         style="stop-opacity:1;stop-color:#1a0f91"
         offset="1"
         id="stop502" /></linearGradient><clipPath
       clipPathUnits="userSpaceOnUse"
       id="clipPath514"><path
         d="m 28029.3,25529.8 -4689.2,30.4 c -1115.6,7.2 -2034.3,-899.7 -2041.6,-2015.3 l -12,-1857.3 c -2.7,-420.5 339.1,-766.8 759.6,-769.6 l 7216.9,-46.8 c 420.6,-2.7 766.8,339.1 769.6,759.7 l 12,1857.3 c 7.2,1115.6 -899.6,2034.4 -2015.3,2041.6 z"
         id="path512" /></clipPath><linearGradient
       x1="0"
       y1="0"
       x2="1"
       y2="0"
       gradientUnits="userSpaceOnUse"
       gradientTransform="matrix(6310.8,-9090.55,-9090.55,-6310.8,23074.2,26521.5)"
       spreadMethod="pad"
       id="linearGradient520"><stop
         style="stop-opacity:1;stop-color:#4f52ff"
         offset="0"
         id="stop516" /><stop
         style="stop-opacity:1;stop-color:#4042e2"
         offset="1"
         id="stop518" /></linearGradient><clipPath
       clipPathUnits="userSpaceOnUse"
       id="clipPath530"><path
         d="m 28829.2,22864.1 c -2.2,-324.6 -250.3,-595.4 -573.7,-623.7 -1750,-153.3 -3564.3,-146.5 -5431,36.9 -323.9,31.8 -570.3,305.9 -568.2,631.4 l 2.2,341.2 c 2.1,323.5 249,593.5 571.2,623.4 1816.2,168.6 3632.2,188.4 5448,-26.6 317.7,-37.6 555.8,-309.8 553.7,-629.8 z"
         id="path528" /></clipPath><linearGradient
       x1="0"
       y1="0"
       x2="1"
       y2="0"
       gradientUnits="userSpaceOnUse"
       gradientTransform="matrix(6572.86,-42.7236,-42.7236,-6572.86,22257.5,23089.9)"
       spreadMethod="pad"
       id="linearGradient536"><stop
         style="stop-opacity:1;stop-color:#09005d"
         offset="0"
         id="stop532" /><stop
         style="stop-opacity:1;stop-color:#1a0f91"
         offset="1"
         id="stop534" /></linearGradient><clipPath
       clipPathUnits="userSpaceOnUse"
       id="clipPath550"><path
         d="m 21923.9,26499.8 c -0.8,-122.4 -100.7,-220.9 -223,-220.1 -122.4,0.8 -220.9,100.6 -220.2,223 0.8,122.3 100.7,220.9 223,220.1 122.4,-0.8 220.9,-100.6 220.2,-223 z"
         id="path548" /></clipPath><linearGradient
       x1="0"
       y1="0"
       x2="1"
       y2="0"
       gradientUnits="userSpaceOnUse"
       gradientTransform="matrix(-297.37,-2526.59,-2526.59,297.37,21809.5,27412)"
       spreadMethod="pad"
       id="linearGradient556"><stop
         style="stop-opacity:1;stop-color:#4f52ff"
         offset="0"
         id="stop552" /><stop
         style="stop-opacity:1;stop-color:#4042e2"
         offset="1"
         id="stop554" /></linearGradient><clipPath
       clipPathUnits="userSpaceOnUse"
       id="clipPath566"><path
         d="m 21690.4,24670.5 c 0,0 528.7,-71.1 822.5,617.7 l -138.7,290.8 c -47.3,99 -166.3,140.3 -264.7,91.9 l -304.7,-149.9 c -66.9,-32.9 -109.5,-100.8 -110,-175.4 z"
         id="path564" /></clipPath><linearGradient
       x1="0"
       y1="0"
       x2="1"
       y2="0"
       gradientUnits="userSpaceOnUse"
       gradientTransform="matrix(818.448,-5.31992,-5.31992,-818.448,21693.7,25181.6)"
       spreadMethod="pad"
       id="linearGradient572"><stop
         style="stop-opacity:1;stop-color:#09005d"
         offset="0"
         id="stop568" /><stop
         style="stop-opacity:1;stop-color:#1a0f91"
         offset="1"
         id="stop570" /></linearGradient><clipPath
       clipPathUnits="userSpaceOnUse"
       id="clipPath582"><path
         d="m 21745.5,26398.5 c -5.7,13.5 -26,7.5 -23.4,-6.9 l 176.1,-973.6 c 4,-22.2 18.8,-40.8 39.5,-49.7 20.7,-8.9 44.4,-6.8 63.2,5.6 l 56.6,37.2 c 47.1,30.9 65.4,91 43.5,142.9 z"
         id="path580" /></clipPath><linearGradient
       x1="0"
       y1="0"
       x2="1"
       y2="0"
       gradientUnits="userSpaceOnUse"
       gradientTransform="matrix(-283.464,-2408.44,-2408.44,283.464,22079,27332.8)"
       spreadMethod="pad"
       id="linearGradient588"><stop
         style="stop-opacity:1;stop-color:#4f52ff"
         offset="0"
         id="stop584" /><stop
         style="stop-opacity:1;stop-color:#4042e2"
         offset="1"
         id="stop586" /></linearGradient><clipPath
       clipPathUnits="userSpaceOnUse"
       id="clipPath598"><path
         d="m 29456.8,26451 c -0.8,-122.4 97.7,-222.3 220.1,-223 122.4,-0.8 222.2,97.7 223,220.1 0.8,122.3 -97.8,222.2 -220.1,223 -122.4,0.8 -222.2,-97.8 -223,-220.1 z"
         id="path596" /></clipPath><linearGradient
       x1="0"
       y1="0"
       x2="1"
       y2="0"
       gradientUnits="userSpaceOnUse"
       gradientTransform="matrix(-297.371,-2526.6,-2526.6,297.371,29682.6,26485.5)"
       spreadMethod="pad"
       id="linearGradient604"><stop
         style="stop-opacity:1;stop-color:#4f52ff"
         offset="0"
         id="stop600" /><stop
         style="stop-opacity:1;stop-color:#4042e2"
         offset="1"
         id="stop602" /></linearGradient><clipPath
       clipPathUnits="userSpaceOnUse"
       id="clipPath614"><path
         d="m 29666.5,24618.8 c 0,0 -529.6,-64.3 -814.4,628.3 l 142.5,289 c 48.5,98.4 168,138.1 265.8,88.5 l 302.7,-153.9 c 66.5,-33.8 108.2,-102.2 107.7,-176.8 z"
         id="path612" /></clipPath><linearGradient
       x1="0"
       y1="0"
       x2="1"
       y2="0"
       gradientUnits="userSpaceOnUse"
       gradientTransform="matrix(818.457,-5.31997,-5.31997,-818.457,28851.3,25135.1)"
       spreadMethod="pad"
       id="linearGradient620"><stop
         style="stop-opacity:1;stop-color:#09005d"
         offset="0"
         id="stop616" /><stop
         style="stop-opacity:1;stop-color:#1a0f91"
         offset="1"
         id="stop618" /></linearGradient><clipPath
       clipPathUnits="userSpaceOnUse"
       id="clipPath630"><path
         d="m 29657.1,26340.1 -187.8,-967 c -4.5,-23 -20.2,-42.3 -41.9,-51.2 -21.7,-9 -46.4,-6.5 -65.9,6.6 l -52.5,35.5 c -46.6,31.6 -64.1,91.9 -41.6,143.5 l 366.4,839.9 c 5.8,13.4 26.1,7.1 23.3,-7.3 z"
         id="path628" /></clipPath><linearGradient
       x1="0"
       y1="0"
       x2="1"
       y2="0"
       gradientUnits="userSpaceOnUse"
       gradientTransform="matrix(-286.359,-2433.03,-2433.03,286.359,29527.4,26498.7)"
       spreadMethod="pad"
       id="linearGradient636"><stop
         style="stop-opacity:1;stop-color:#4f52ff"
         offset="0"
         id="stop632" /><stop
         style="stop-opacity:1;stop-color:#4042e2"
         offset="1"
         id="stop634" /></linearGradient><clipPath
       clipPathUnits="userSpaceOnUse"
       id="clipPath650"><path
         d="m 29924.1,11267.1 h -8593.8 c -208.4,0 -377.4,169 -377.4,377.5 v 8292.3 c 0,208.4 169,377.4 377.4,377.4 h 8593.8 c 208.5,0 377.5,-169 377.5,-377.4 v -8292.3 c 0,-208.5 -169,-377.5 -377.5,-377.5 z"
         id="path648" /></clipPath><linearGradient
       x1="0"
       y1="0"
       x2="1"
       y2="0"
       gradientUnits="userSpaceOnUse"
       gradientTransform="matrix(9770.8,16567.9,16567.9,-9770.8,20912.7,7796.5)"
       spreadMethod="pad"
       id="linearGradient656"><stop
         style="stop-opacity:1;stop-color:#4f52ff"
         offset="0"
         id="stop652" /><stop
         style="stop-opacity:1;stop-color:#4042e2"
         offset="1"
         id="stop654" /></linearGradient><clipPath
       clipPathUnits="userSpaceOnUse"
       id="clipPath666"><path
         d="m 27592,17785.7 c 0,-57.4 -2.3,-114.3 -7.4,-170.6 -51.2,-617.9 -380.6,-1173.2 -869.9,-1537.4 -341.8,-255.1 -762.3,-416.2 -1220.1,-440.4 -1208,-63.6 -2214.6,846.8 -2214.6,2035.1 0,613.9 268.7,1167.8 695.3,1559.9 64.7,59.6 133.4,115.6 205.1,167.2 369.6,266.7 825.3,424.2 1314.2,424.2 1172.2,0 2097.4,-912.5 2097.4,-2038 z"
         id="path664" /></clipPath><linearGradient
       x1="0"
       y1="0"
       x2="1"
       y2="0"
       gradientUnits="userSpaceOnUse"
       gradientTransform="matrix(-1005.29,3686.08,3686.08,1005.29,25927.8,15923.6)"
       spreadMethod="pad"
       id="linearGradient672"><stop
         style="stop-opacity:1;stop-color:#fe7062"
         offset="0"
         id="stop668" /><stop
         style="stop-opacity:1;stop-color:#ff928e"
         offset="1"
         id="stop670" /></linearGradient></defs><sodipodi:namedview
     id="namedview4"
     pagecolor="#ffffff"
     bordercolor="#666666"
     borderopacity="1.0"
     inkscape:pageshadow="2"
     inkscape:pageopacity="0.0"
     inkscape:pagecheckerboard="0"
     showgrid="false"
     inkscape:zoom="0.14696766"
     inkscape:cx="3225.1993"
     inkscape:cy="2827.1526"
     inkscape:window-width="1904"
     inkscape:window-height="1008"
     inkscape:window-x="8"
     inkscape:window-y="36"
     inkscape:window-maximized="0"
     inkscape:current-layer="g8" /><g
     id="g8"
     inkscape:groupmode="layer"
     inkscape:label="ink_ext_XXXXXX"
     transform="matrix(1.3333333,0,0,-1.3333333,0,4946.6667)"><g
       id="g10"
       transform="scale(0.1)"><g
         id="g14"><g
           id="g16"
           clip-path="url(#clipPath20)"><path
             d="m 16522.2,4677.4 c -439,0 -871.3,17.3 -1295.7,51.7 -1104.3,89.6 -2981,241.9 -4863.6,1095.4 l 11962.4,-177 C 20404,4996.3 18406.8,4677.4 16522.2,4677.4 m 8615.5,2203.5 c 8,196.8 15.1,420.9 21.4,668.8 7311.2,3408.4 7156.7,12849.3 7062.9,14594.7 -4.8,89.9 -73.3,149.9 -147.4,149.9 -29.1,0 -59,-9.2 -86.2,-29.6 -673,-501.4 -1297.5,-998.8 -1878.1,-1491.7 494.1,1654.1 740.4,3324.5 840.5,4863.8 2005.6,-3565.1 2097.8,-8288.3 428,-12114.1 C 30077.2,10540.5 27793.7,8340.8 25137.7,6880.9 M 7721.95,7619.2 C 3391.06,11867.9 3806,20194.7 7626.77,25693.6 c -23.88,-5931.4 43.94,-14876.4 95.18,-18074.4 m -820.48,16073.7 c -38.73,0 -76.13,-21.1 -95.12,-57.7 -27.19,-52.4 -6.69,-117 45.76,-144.1 105.88,-54.9 215.25,-105.9 325.13,-151.5 13.42,-5.6 27.32,-8.2 41,-8.2 32.25,0 63.24,14.7 83.59,40.2 6.12,7.6 11.26,16.2 15.21,25.7 22.66,54.6 -3.2,117.2 -57.72,139.8 -104.38,43.4 -208.27,91.7 -308.84,143.9 -15.69,8.1 -32.47,11.9 -49.01,11.9 m 18186.13,2132.5 c -25.2,1747 -50.1,3151.9 -69,3943.7 -15,631.1 -571,1165.9 -1323.5,1273.9 -1809,259.8 -4678.4,385.4 -7487.7,442.3 -0.8,1 -1.5,2 -2.3,2.9 -13,16.5 -32.3,25 -51.7,25 -14.4,0 -28.9,-4.7 -41.1,-14.3 -4.3,-3.4 -8.1,-7.3 -11.3,-11.4 -233.2,4.6 -466.8,8.7 -698.4,12.4 158.7,51.9 320,101.5 483.4,148.2 11.3,-7.8 24.4,-11.7 37.6,-11.7 17.1,0 34.2,6.6 47.1,19.8 1.6,1.6 3.1,3.3 4.5,5.1 3.6,4.5 6.6,9.4 8.8,14.5 1056.3,293.5 2208.1,472.5 3447.2,472.5 42.5,0 84.9,-0.2 127.5,-0.6 4164.1,-41.3 7226.8,-2091.4 8144.8,-2779.7 -1022.5,-1225.6 -1886.4,-2408.3 -2615.9,-3542.6"
             style="fill:url(#linearGradient26);fill-opacity:1;fill-rule:nonzero;stroke:none"
             id="path28" /></g></g><path
         d="m 31988.4,22264.7 c 96.7,72.1 226.9,4.8 233.6,-120.3 103,-1915.5 279.6,-13099.4 -9419.9,-15406.4 0,0 -1873.4,7286.6 9186.3,15526.7"
         style="fill:#91b3fa;fill-opacity:1;fill-rule:nonzero;stroke:none"
         id="path30" /><path
         d="m 25192,9828.3 c 0.4,56.7 0.8,113.8 1.2,171.5 250.1,317.2 493.1,641.3 728.8,971.4 703.4,979.1 1358.1,1998.6 1984.9,3036.7 312.6,519.7 619.3,1043.6 918.5,1572.3 299,528.8 592.3,1061.4 879.9,1597.5 287.6,536.1 569.4,1075.7 845.6,1618.6 275.8,542.9 547.6,1088.7 808.6,1639.5 l 0.1,0.2 c 4.4,9.3 13.1,14.6 22,14.6 3.6,0 7.2,-0.8 10.5,-2.6 11.8,-6.3 16.5,-21.8 10.4,-34.7 -259.2,-553.3 -528.5,-1100.4 -802.2,-1645.2 -274,-544.7 -553.7,-1086.2 -839.2,-1624.1 -285.4,-538 -576.7,-1072.6 -873.7,-1603.5 -297.2,-530.8 -602,-1056.9 -912.7,-1578.9 C 27351.4,12918.8 26700,11894 25998.6,10908.1 25738.8,10540.7 25470,10180.5 25192,9828.3"
         style="fill:#c6d7fc;fill-opacity:1;fill-rule:nonzero;stroke:none"
         id="path32" /><path
         d="m 30318.2,32232.4 c 104.1,105 269.6,41.8 297,-112.8 418.8,-2366 2358.9,-16247.3 -8835.8,-20645.4 0,0 -3358,8766.9 8538.8,20758.2"
         style="fill:#bdd0fb;fill-opacity:1;fill-rule:nonzero;stroke:none"
         id="path34" /><path
         d="m 25179,17442.4 c -0.7,96.5 -1.4,192.7 -2.1,289.4 640.5,1297.3 1221.3,2632.5 1768.3,3984.5 565.6,1400.8 1093.1,2821.4 1592.2,4254.5 249.6,716.6 491.7,1436.5 726.6,2159.5 234.4,723 463.5,1448.7 679,2178.8 l 0.1,0.3 c 4.4,14.8 16.6,24.2 29.8,24.2 3.2,0 6.6,-0.6 9.9,-1.8 16.3,-6.2 25.2,-26.2 19.8,-44.7 -212.6,-733 -438.4,-1460.1 -669.7,-2185.2 -231.7,-725 -470.8,-1446.9 -717.3,-2165.7 -492.9,-1437.4 -1014.4,-2862.7 -1574.5,-4269 -560.9,-1405.7 -1158.4,-2794.1 -1822.1,-4143.3 -13.3,-27.2 -26.6,-54.4 -40,-81.5"
         style="fill:#dde6fd;fill-opacity:1;fill-rule:nonzero;stroke:none"
         id="path36" /><g
         id="g38"><g
           id="g40"
           clip-path="url(#clipPath44)"><path
             d="m 23623.4,5628.5 c -9.2,0 -18.4,0 -27.7,0.2 l -1270.4,18.8 -11962.4,177 -571.36,8.5 c -1135.56,16.8 -2053.12,779 -2068.49,1718.4 -0.37,22.2 -0.74,45 -1.1,67.8 -51.24,3198 -119.06,12143 -95.18,18074.4 7.93,1969.2 25.97,3606.5 58.08,4590.5 18.49,566.9 483.26,1037.8 1113.25,1185 -0.98,-5.5 -1.55,-11.1 -1.68,-16.8 -1.23,-59 45.64,-107.9 104.69,-109.1 114.96,-2.4 231.29,-9.8 345.76,-22.1 3.85,-0.4 7.66,-0.6 11.45,-0.6 33.3,0 63.71,15.5 83.51,40.3 12.28,15.4 20.46,34.3 22.7,55.3 4.47,41.8 -15.8,80.6 -49.03,101.7 642.21,5.5 1450.3,10.1 2360.4,10.1 1125.4,0 2407,-7 3726.7,-28 231.6,-3.7 465.2,-7.8 698.4,-12.4 -18.2,-23.5 -18.6,-57.1 0.7,-81.4 33.2,-41.9 65.6,-85.3 96.3,-129.1 12.9,-18.4 33.4,-28.2 54.2,-28.2 13.1,0 26.3,3.9 37.8,12 5.3,3.7 9.9,8.1 13.7,12.9 17.9,22.3 19.7,54.5 2.5,79.1 -31.5,44.9 -64.7,89.5 -98.8,132.5 2809.3,-56.9 5678.7,-182.5 7487.7,-442.3 752.5,-108 1308.5,-642.8 1323.5,-1273.9 18.9,-791.8 43.8,-2196.7 69,-3943.7 33.5,-2310.6 67.5,-5219.4 89.3,-8093.6 0.7,-96.7 1.4,-192.9 2.1,-289.4 10.2,-1391.4 17.3,-2770 19.9,-4064 2.5,-1221.6 1,-2368.3 -5.7,-3378.6 -0.4,-57.7 -0.8,-114.8 -1.2,-171.5 -6.5,-883.9 -17.2,-1657 -32.9,-2278.6 -6.3,-247.9 -13.4,-472 -21.4,-668.8 -0.6,-14.8 -1.2,-29.4 -1.8,-43.9 -28.4,-676.4 -697.4,-1208.5 -1512.5,-1208.5 M 9747.94,30667.3 c -671.82,0 -1215.7,-434.6 -1213.59,-973.4 l 14.61,-22143.4 c 2.15,-548.5 554.73,-997 1240.91,-1007.2 L 23362.9,6342.5 c 6.1,-0.1 12.2,-0.1 18.3,-0.1 535.6,0 968.2,348.6 961.5,778.6 l -237.5,22673.9 c -6.1,388.9 -400.1,704.5 -886.5,710.2 l -13452.31,162 c -6.19,0.1 -12.29,0.2 -18.45,0.2 M 7757.08,23363.8 c -47.47,0 -90.86,-31.8 -103.42,-79.8 -14.96,-57.2 19.23,-115.6 76.37,-130.6 115.22,-30.1 233.24,-55.8 350.76,-76.1 6.17,-1.1 12.3,-1.6 18.35,-1.6 33.04,0 63.61,15.4 83.52,40.3 10.88,13.6 18.56,30.1 21.75,48.4 10.08,58.2 -28.92,113.6 -87.11,123.6 -111.65,19.4 -223.71,43.7 -333.1,72.3 -9.06,2.4 -18.16,3.5 -27.12,3.5 m 2942.12,7742.4 c -38.9,0 -76.3,-21.3 -95.4,-58.4 -26.8,-52.6 -5.9,-117 46.7,-143.8 102.3,-52.1 203.7,-109.4 301.6,-170.3 17.6,-10.9 37.1,-16.1 56.3,-16.1 31.8,0 62.9,14.1 83.6,40.1 2.7,3.3 5.1,6.7 7.4,10.4 31.2,50.1 15.8,116.1 -34.4,147.3 -103,64 -209.8,124.3 -317.3,179.1 -15.6,8 -32.2,11.7 -48.5,11.7 m 1003.7,296.9 c -20.6,0 -40.8,-9.5 -53.1,-27.7 -8.9,-12.6 -17.8,-25.2 -26.6,-38 -57.9,-83.8 -111.9,-171.4 -160.1,-260.1 -17.5,-32 -5.7,-72.1 26.4,-89.5 10,-5.5 20.8,-8.1 31.5,-8.1 19.7,0 38.9,8.9 51.6,24.8 2.4,3 4.6,6.2 6.5,9.7 46,84.6 97.5,168.1 153,248.3 8.3,12.2 16.6,24.1 25.1,35.8 21.2,29.7 14.5,71 -15.2,92.2 -11.8,8.5 -25.5,12.6 -39.1,12.6 m -1875.97,30.2 c -47.9,0 -91.47,-32.4 -103.7,-80.9 -14.37,-57.3 20.43,-115.4 77.69,-129.8 111.57,-28 223.18,-61.2 331.88,-98.7 11.6,-4 23.3,-5.8 34.9,-5.8 32.4,0 63.3,14.8 83.6,40.2 7.4,9.3 13.4,20 17.5,31.9 19.2,55.8 -10.4,116.7 -66.3,135.9 -114.4,39.5 -232.02,74.5 -349.51,103.9 -8.72,2.2 -17.46,3.3 -26.06,3.3"
             style="fill:url(#linearGradient50);fill-opacity:1;fill-rule:nonzero;stroke:none"
             id="path52" /></g></g><path
         d="M 23362.9,6342.5 9789.87,6543.3 C 9103.69,6553.5 8551.11,7002 8548.96,7550.5 l -14.61,22143.4 c -2.13,543.8 551.72,981.3 1232.04,973.2 l 13452.31,-162 c 486.4,-5.7 880.4,-321.3 886.5,-710.2 L 24342.7,7121 c 6.8,-434.9 -435.8,-786.6 -979.8,-778.5"
         style="fill:#91b3fa;fill-opacity:1;fill-rule:nonzero;stroke:none"
         id="path54" /><g
         id="g56"><g
           id="g58"
           clip-path="url(#clipPath62)"><path
             d="m 23143.4,9091.6 c -157.5,482 -434.9,910.5 -798.4,1257.7 -459.7,439.1 -1057.1,748.3 -1724.2,871.5 0,0 -865.9,149.6 -1815.9,394.3 -310.3,80 -642.5,13 -891.4,-178.3 -663.7,-510 -1910,-1173.9 -3867.7,-1129.1 -1773.3,40.5 -2792.5,571.3 -3345.1,1028.2 -257.1,212.6 -611.3,288.2 -940.32,198 C 9045.11,11337.7 8450.2,11220.8 8450.2,11220.8 7255.59,11000.1 5736.82,10183.1 5379.99,9091.6 5038.13,8045.9 4773.22,6928.1 4736.01,5487 c -13.52,-524 194.96,-804.2 753.94,-804.2 L 23132,4532 c 559,0 717.2,682.3 703.6,1206.3 -37.2,1441.1 -350.3,2307.6 -692.2,3353.3"
             style="fill:url(#linearGradient68);fill-opacity:1;fill-rule:nonzero;stroke:none"
             id="path70" /></g></g><g
         id="g72"><g
           id="g74"
           clip-path="url(#clipPath78)"><path
             d="m 14045.8,10218.5 c 2414,-58.9 4106.3,909.7 4598.5,1424.4 -978.7,303.3 -2256.8,823.6 -2272.1,1255.1 l -147.4,4156.1 H 12337.1 L 12189.7,12898 c -16.4,-460.6 -1506.3,-1062.1 -2429.32,-1371.7 394.62,-504.3 1997.62,-1252 4285.42,-1307.8"
             style="fill:url(#linearGradient84);fill-opacity:1;fill-rule:nonzero;stroke:none"
             id="path86" /></g></g><g
         id="g88"><g
           id="g90"
           clip-path="url(#clipPath94)"><path
             d="m 14284.7,13795.1 c -679.3,0 -1220.2,232.9 -1220.2,232.9 -1105.4,440.7 -1719,3357.4 -2000.3,5197.9 52.2,-31.9 112.8,-49.3 174.9,-49.3 45.3,0 91.4,9.3 135.7,28.9 123.2,54.7 201.8,178 198.8,312.8 -10.9,491.5 -1,1631.9 325.9,1631.9 703.3,0 657.2,-721.6 1853.4,-721.6 121.8,0 256.5,7.5 406.1,24 1197.8,131.9 1963.8,855.8 2325.5,855.8 127.4,0 204.6,-89.8 232.9,-326.7 79.7,-668.6 133.2,-1264.3 156,-1533.1 8,-94.8 63.3,-179 147,-224.3 v 0 c 43.1,-23.3 89,-34.2 134.1,-34.2 5.5,0 11,0.2 16.5,0.5 -224.4,-3769.4 -1673.2,-5087.6 -1673.2,-5087.6 -400.1,-233.4 -828.7,-307.9 -1213.1,-307.9 m -1356.6,9909.8 c -21.8,0 -43.5,0.9 -65.2,2.7 114.7,26.1 235.9,47.2 364,62.8 -100.9,-46.4 -200.1,-65.5 -298.8,-65.5"
             style="fill:url(#linearGradient100);fill-opacity:1;fill-rule:nonzero;stroke:none"
             id="path102" /></g></g><g
         id="g104"><g
           id="g106"
           clip-path="url(#clipPath110)"><path
             d="m 16870.2,18609 c 0,0 276.9,830.7 738.4,830.7 461.4,0 -92.3,-2215.1 -738.4,-2215.1 V 18609"
             style="fill:url(#linearGradient116);fill-opacity:1;fill-rule:nonzero;stroke:none"
             id="path118" /></g></g><g
         id="g120"><g
           id="g122"
           clip-path="url(#clipPath126)"><path
             d="m 11477.9,18798.5 c 0,0 -380.7,703.4 -838,641.2 -457.2,-62.2 197.8,-2298.4 838,-2211.3 v 1570.1"
             style="fill:url(#linearGradient132);fill-opacity:1;fill-rule:nonzero;stroke:none"
             id="path134" /></g></g><g
         id="g136"><g
           id="g138"
           clip-path="url(#clipPath142)"><path
             d="m 11239.1,19176.6 c -62.1,0 -122.7,17.4 -174.9,49.3 -62.3,38.1 -112.6,96.7 -139.6,171.1 -116.5,320.6 -295.3,808 -440.2,1180.4 -235.8,606.5 -1482.39,1381.4 -168.4,2897.5 392.5,452.9 734.2,623.6 1043.7,652.1 -55.5,-44.8 -112.3,-88.2 -169.8,-129.8 -47.8,-34.7 -58.6,-101.4 -24,-149.3 20.9,-28.9 53.6,-44.3 86.8,-44.3 21.7,0 43.6,6.6 62.5,20.3 96.7,69.9 191.5,144.7 281.7,222.3 5.1,4.5 9.7,9.3 13.8,14.4 13.3,16.6 21,36.4 22.9,56.7 208.4,-32.4 403.3,-115.8 591.5,-199.2 218.1,-96.6 427.2,-193.3 637.8,-210.5 21.7,-1.8 43.4,-2.7 65.2,-2.7 98.7,0 197.9,19.1 298.8,65.5 7.2,3.3 14.5,6.8 21.7,10.4 673.9,335.5 1448.9,1012.7 2185.2,1012.7 219.1,0 434.8,-60 643.4,-206.8 909.7,-640.1 303.3,-1246.6 606.5,-1415 28.4,-15.8 58.3,-22.4 89.4,-22.4 80.8,0 169.9,44.6 262.9,89.2 93,44.7 189.9,89.3 286.4,89.3 166.5,0 331.7,-132.8 473.1,-627.8 260.7,-912.4 -163.9,-2592 -369.5,-3305.5 -34.6,-120.5 -140.5,-197.1 -255,-203.9 -5.5,-0.3 -11,-0.5 -16.5,-0.5 -45.1,0 -91,10.9 -134.1,34.2 v 0 c -83.7,45.3 -139,129.5 -147,224.3 -22.8,268.8 -76.3,864.5 -156,1533.1 -28.3,236.9 -105.5,326.7 -232.9,326.7 -361.7,0 -1127.7,-723.9 -2325.5,-855.8 -149.6,-16.5 -284.3,-24 -406.1,-24 -1196.2,0 -1150.1,721.6 -1853.4,721.6 -326.9,0 -336.8,-1140.4 -325.9,-1631.9 3,-134.8 -75.6,-258.1 -198.8,-312.8 -44.3,-19.6 -90.4,-28.9 -135.7,-28.9 m 108.6,3994.5 c -3,0 -6.1,-0.8 -8.8,-2.5 -349.8,-217.9 -821.9,-566.6 -883.5,-1075.6 -44,-362.7 132.4,-704 303,-1034 175.4,-339.4 356.7,-690.3 287,-1055.4 -1.7,-9.1 4.2,-17.8 13.3,-19.6 1.1,-0.2 2.2,-0.3 3.2,-0.3 7.9,0 14.9,5.6 16.4,13.6 71.9,376.5 -112.2,732.6 -290.2,1077 -168.2,325.6 -342.2,662.2 -299.5,1014.6 60,494.8 524.1,836.9 868,1051.3 7.8,4.9 10.2,15.2 5.4,23.1 -3.2,5.1 -8.7,7.8 -14.3,7.8 m 204,424.6 c -0.4,0 -0.7,0 -1,-0.1 -372.6,-28 -734.1,-206.3 -993.4,-483.5 -129.3,-138.9 -233,-303 -301.8,-480.2 -69.8,-177.1 -105.2,-366.5 -110.7,-556.2 -2.7,-189.7 25.8,-380.8 90.8,-559.2 30.7,-89.6 71.5,-174.7 114.6,-257.8 42.8,-83.2 90.8,-163 138.6,-242.3 97,-157.9 195.8,-312.8 282.6,-473.8 41.9,-81 81,-163.6 112.2,-249.3 8.2,-21.2 14.2,-43.2 21.5,-64.8 6.9,-21.9 14.7,-43.2 18.5,-64.4 8.4,-41.6 7,-89.9 -26,-111.4 -5.6,-3.7 -7.6,-11.1 -4.3,-17.1 2.4,-4.2 6.8,-6.6 11.3,-6.6 2.1,0 4.3,0.5 6.3,1.6 24,13.5 39.4,39.4 44.6,64.4 5.7,25.2 4.9,50.3 1.8,74.5 -2.9,24.6 -9.7,47.1 -15.8,69.5 -6.4,22.4 -11.6,45.3 -19,67.5 -28,89.2 -64.2,175.5 -103.3,260.1 -79.7,168.7 -177.7,326.6 -268.7,486.2 -91,159.4 -177,321.2 -233.8,491.9 -59.5,169.5 -82.6,349.8 -79,528.7 10.1,358.4 146.1,711.7 385.1,979 239.5,266.6 570.2,454 931,517.7 6.5,1.1 11.2,7 10.7,13.6 -0.5,6.8 -6.1,12 -12.8,12 M 13414,21303.4 c -1.1,0 -2.2,-0.1 -3.3,-0.4 -6.8,-1.8 -11,-8.9 -9.2,-15.7 27.1,-103.1 89,-197 172.1,-264.2 81.9,-69 181,-115.3 284.6,-141.4 58,-14.2 117.6,-20.6 177.1,-20.6 47.5,0 94.9,4.1 141.4,11.5 105.4,15.9 206.9,48.9 304.3,89.1 97,41.1 190.3,89.6 280.5,142.1 90.4,52.1 178.7,107.4 265.5,164.5 174,113.5 343.6,232.3 516.9,343.7 86.4,56.2 174.4,109.1 263.2,160.4 89.9,49 179.7,98.4 273.1,139.2 92.5,43.3 188.7,76.6 285.3,107.9 49.1,12.5 98,27.4 147.2,38 49.3,10.4 99,18 148.5,21.6 20,1.4 40.1,2.2 60.1,2.2 78.8,0 156.9,-12 226.8,-44.7 l 16.3,-7.6 15.6,-9.2 c 10.3,-6.2 21,-12 31.2,-18.6 19,-14.9 39.4,-28.1 56.2,-45.9 36.1,-32.6 65.6,-72.6 91.1,-114.9 l 18.6,-32.3 16.1,-33.9 c 11.1,-22.3 19.6,-46.1 29.1,-69.5 16.8,-47.6 31.6,-96.2 42.6,-146.1 23.1,-99.5 35.6,-201.9 47.2,-304.5 0.8,-6.5 6.3,-11.6 12.8,-11.6 0.2,0 0.4,0 0.6,0 7.1,0.3 12.6,6.3 12.3,13.5 -4.5,103.7 -12,207.8 -31.1,311.1 -18.9,103 -46.8,206.8 -100,301.1 -26.4,46.9 -57.8,92.1 -97.4,130.3 -18.4,20.4 -41.1,36.4 -62.4,53.9 -11.3,7.8 -23.2,14.8 -34.9,22.2 l -17.5,11 -18.6,9.3 c -49.5,24.9 -103.1,40.7 -157,49.2 -38,6.2 -76.2,9.1 -114.1,9.1 -16.1,0 -32.2,-0.5 -48.1,-1.5 -215.2,-15.1 -416.5,-83.4 -608.8,-167.7 -96.5,-41.8 -189,-91.2 -280.2,-142.4 -90.1,-52.9 -179.2,-107.3 -265.9,-164.6 -174.3,-113.7 -343.1,-233.7 -515.1,-347.5 -85.7,-57.5 -173,-111.9 -260.6,-165.6 -87.6,-53.4 -177.4,-102.4 -270.2,-144 -93,-40.6 -189.2,-74 -288.5,-91.1 -50.1,-9 -100.8,-13.9 -151.3,-13.9 -49.4,0 -98.7,4.7 -147.1,14.5 -97.6,21.2 -192.3,61.5 -271.2,123.6 -79.7,60.7 -141.2,145 -171.4,241.1 l -0.1,0.3 c -1.8,5.5 -6.8,9 -12.3,9 m -2643.3,2413.9 c -16.9,0 -34.1,-4 -50.1,-12.5 -99.7,-53.1 -203.1,-102.5 -307.3,-147.2 -54.3,-23.2 -79.4,-86.1 -56.2,-140.4 17.4,-40.5 56.9,-64.8 98.4,-64.8 14,0 28.3,2.8 42,8.6 109.7,47 218.6,99.1 323.5,155 13.3,7 24.5,16.5 33.4,27.6 25.8,32.3 31.5,78.1 10.8,117 -19.2,36.1 -56.2,56.7 -94.5,56.7"
             style="fill:url(#linearGradient148);fill-opacity:1;fill-rule:nonzero;stroke:none"
             id="path150" /></g></g><g
         id="g152"><g
           id="g154"
           clip-path="url(#clipPath158)"><path
             d="m 10904.6,20029 c -4.5,0 -8.9,2.4 -11.3,6.6 -3.3,6 -1.3,13.4 4.3,17.1 33,21.5 34.4,69.8 26,111.4 -3.8,21.2 -11.6,42.5 -18.5,64.4 -7.3,21.6 -13.3,43.6 -21.5,64.8 -31.2,85.7 -70.3,168.3 -112.2,249.3 -86.8,161 -185.6,315.9 -282.6,473.8 -47.8,79.3 -95.8,159.1 -138.6,242.3 -43.1,83.1 -83.9,168.2 -114.6,257.8 -65,178.4 -93.5,369.5 -90.8,559.2 5.5,189.7 40.9,379.1 110.7,556.2 68.8,177.2 172.5,341.3 301.8,480.2 259.3,277.2 620.8,455.5 993.4,483.5 0.3,0.1 0.6,0.1 1,0.1 6.7,0 12.3,-5.2 12.8,-12 0.5,-6.6 -4.2,-12.5 -10.7,-13.6 -360.8,-63.7 -691.5,-251.1 -931,-517.7 -239,-267.3 -375,-620.6 -385.1,-979 -3.6,-178.9 19.5,-359.2 79,-528.7 56.8,-170.7 142.8,-332.5 233.8,-491.9 91,-159.6 189,-317.5 268.7,-486.2 39.1,-84.6 75.3,-170.9 103.3,-260.1 7.4,-22.2 12.6,-45.1 19,-67.5 6.1,-22.4 12.9,-44.9 15.8,-69.5 3.1,-24.2 3.9,-49.3 -1.8,-74.5 -5.2,-25 -20.6,-50.9 -44.6,-64.4 -2,-1.1 -4.2,-1.6 -6.3,-1.6"
             style="fill:url(#linearGradient164);fill-opacity:1;fill-rule:nonzero;stroke:none"
             id="path166" /></g></g><g
         id="g168"><g
           id="g170"
           clip-path="url(#clipPath174)"><path
             d="m 11061.9,19983.7 c -1,0 -2.1,0.1 -3.2,0.3 -9.1,1.8 -15,10.5 -13.3,19.6 69.7,365.1 -111.6,716 -287,1055.4 -170.6,330 -347,671.3 -303,1034 61.6,509 533.7,857.7 883.5,1075.6 2.7,1.7 5.8,2.5 8.8,2.5 5.6,0 11.1,-2.7 14.3,-7.8 4.8,-7.9 2.4,-18.2 -5.4,-23.1 -343.9,-214.4 -808,-556.5 -868,-1051.3 -42.7,-352.4 131.3,-689 299.5,-1014.6 178,-344.4 362.1,-700.5 290.2,-1077 -1.5,-8 -8.5,-13.6 -16.4,-13.6"
             style="fill:url(#linearGradient180);fill-opacity:1;fill-rule:nonzero;stroke:none"
             id="path182" /></g></g><g
         id="g184"><g
           id="g186"
           clip-path="url(#clipPath190)"><path
             d="m 14035.3,20861.1 c -59.5,0 -119.1,6.4 -177.1,20.6 -103.6,26.1 -202.7,72.4 -284.6,141.4 -83.1,67.2 -145,161.1 -172.1,264.2 -1.8,6.8 2.4,13.9 9.2,15.7 1.1,0.3 2.2,0.4 3.3,0.4 5.5,0 10.5,-3.5 12.3,-9 l 0.1,-0.3 c 30.2,-96.1 91.7,-180.4 171.4,-241.1 78.9,-62.1 173.6,-102.4 271.2,-123.6 48.4,-9.8 97.7,-14.5 147.1,-14.5 50.5,0 101.2,4.9 151.3,13.9 99.3,17.1 195.5,50.5 288.5,91.1 92.8,41.6 182.6,90.6 270.2,144 87.6,53.7 174.9,108.1 260.6,165.6 172,113.8 340.8,233.8 515.1,347.5 86.7,57.3 175.8,111.7 265.9,164.6 91.2,51.2 183.7,100.6 280.2,142.4 192.3,84.3 393.6,152.6 608.8,167.7 15.9,1 32,1.5 48.1,1.5 37.9,0 76.1,-2.9 114.1,-9.1 53.9,-8.5 107.5,-24.3 157,-49.2 l 18.6,-9.3 17.5,-11 c 11.7,-7.4 23.6,-14.4 34.9,-22.2 21.3,-17.5 44,-33.5 62.4,-53.9 39.6,-38.2 71,-83.4 97.4,-130.3 53.2,-94.3 81.1,-198.1 100,-301.1 19.1,-103.3 26.6,-207.4 31.1,-311.1 0.3,-7.2 -5.2,-13.2 -12.3,-13.5 -0.2,0 -0.4,0 -0.6,0 -6.5,0 -12,5.1 -12.8,11.6 -11.6,102.6 -24.1,205 -47.2,304.5 -11,49.9 -25.8,98.5 -42.6,146.1 -9.5,23.4 -18,47.2 -29.1,69.5 l -16.1,33.9 -18.6,32.3 c -25.5,42.3 -55,82.3 -91.1,114.9 -16.8,17.8 -37.2,31 -56.2,45.9 -10.2,6.6 -20.9,12.4 -31.2,18.6 l -15.6,9.2 -16.3,7.6 c -69.9,32.7 -148,44.7 -226.8,44.7 -20,0 -40.1,-0.8 -60.1,-2.2 -49.5,-3.6 -99.2,-11.2 -148.5,-21.6 -49.2,-10.6 -98.1,-25.5 -147.2,-38 -96.6,-31.3 -192.8,-64.6 -285.3,-107.9 -93.4,-40.8 -183.2,-90.2 -273.1,-139.2 -88.8,-51.3 -176.8,-104.2 -263.2,-160.4 -173.3,-111.4 -342.9,-230.2 -516.9,-343.7 -86.8,-57.1 -175.1,-112.4 -265.5,-164.5 -90.2,-52.5 -183.5,-101 -280.5,-142.1 -97.4,-40.2 -198.9,-73.2 -304.3,-89.1 -46.5,-7.4 -93.9,-11.5 -141.4,-11.5"
             style="fill:url(#linearGradient196);fill-opacity:1;fill-rule:nonzero;stroke:none"
             id="path198" /></g></g><path
         d="m 13134.3,15878.9 c 687.9,-902.9 1363.1,-785 2235.2,0 -703.6,-146.3 -1531.7,-192.9 -2235.2,0"
         style="fill:#ffffff;fill-opacity:1;fill-rule:nonzero;stroke:none"
         id="path200" /><g
         id="g202"><g
           id="g204"
           clip-path="url(#clipPath208)"><path
             d="m 14735.4,19225.6 v 0 c 0,-73.6 71.9,-125.9 141.7,-102.7 338.4,112.4 1214.5,339.6 1876.7,-51.7 0,0 -370.1,851.1 -1949.1,255.3 -41.8,-15.8 -69.3,-56.2 -69.3,-100.9"
             style="fill:url(#linearGradient214);fill-opacity:1;fill-rule:nonzero;stroke:none"
             id="path216" /></g></g><g
         id="g218"><g
           id="g220"
           clip-path="url(#clipPath224)"><path
             d="m 13599.1,19225.6 v 0 c 0,-73.6 -71.9,-125.9 -141.7,-102.7 -338.3,112.4 -1214.5,339.6 -1876.6,-51.7 0,0 370,851.1 1949,255.3 41.8,-15.8 69.3,-56.2 69.3,-100.9"
             style="fill:url(#linearGradient230);fill-opacity:1;fill-rule:nonzero;stroke:none"
             id="path232" /></g></g><path
         d="m 9542.05,23694.6 c -92.54,0 -167.55,75 -167.55,167.6 v 1391 c 0,356 289.65,645.7 645.7,645.7 h 962.7 c 92.5,0 167.5,-75 167.5,-167.6 0,-92.5 -75,-167.5 -167.5,-167.5 h -962.7 c -171.29,0 -310.6,-139.3 -310.6,-310.6 v -1391 c 0,-92.6 -75.01,-167.6 -167.55,-167.6"
         style="fill:#ffffff;fill-opacity:1;fill-rule:nonzero;stroke:none"
         id="path234" /><path
         d="m 18875.1,23694.6 c -92.6,0 -167.6,75 -167.6,167.6 v 1391 c 0,171.3 -139.3,310.6 -310.5,310.6 h -962.7 c -92.6,0 -167.6,75 -167.6,167.5 0,92.6 75,167.6 167.6,167.6 h 962.7 c 356,0 645.6,-289.7 645.6,-645.7 v -1391 c 0,-92.6 -75,-167.6 -167.5,-167.6"
         style="fill:#ffffff;fill-opacity:1;fill-rule:nonzero;stroke:none"
         id="path236" /><path
         d="m 10982.9,12687.1 h -962.7 c -356.05,0 -645.7,289.6 -645.7,645.6 v 1391.1 c 0,92.5 75.01,167.5 167.55,167.5 92.54,0 167.55,-75 167.55,-167.5 v -1391.1 c 0,-171.2 139.31,-310.5 310.6,-310.5 h 962.7 c 92.5,0 167.5,-75 167.5,-167.6 0,-92.5 -75,-167.5 -167.5,-167.5"
         style="fill:#ffffff;fill-opacity:1;fill-rule:nonzero;stroke:none"
         id="path238" /><path
         d="m 18397,12687.1 h -962.7 c -92.6,0 -167.6,75 -167.6,167.5 0,92.6 75,167.6 167.6,167.6 h 962.7 c 171.2,0 310.5,139.3 310.5,310.5 v 1391.1 c 0,92.5 75,167.5 167.6,167.5 92.5,0 167.5,-75 167.5,-167.5 v -1391.1 c 0,-356 -289.6,-645.6 -645.6,-645.6"
         style="fill:#ffffff;fill-opacity:1;fill-rule:nonzero;stroke:none"
         id="path240" /><path
         d="m 12080.6,20857.9 c 0,-117.7 -95.5,-213.2 -213.2,-213.2 -117.8,0 -213.3,95.5 -213.3,213.2 0,117.8 95.5,213.3 213.3,213.3 117.7,0 213.2,-95.5 213.2,-213.3"
         style="fill:#ffffff;fill-opacity:1;fill-rule:nonzero;stroke:none"
         id="path242" /><path
         d="m 12980,18259.6 c 0,-117.8 -95.4,-213.2 -213.2,-213.2 -117.8,0 -213.3,95.4 -213.3,213.2 0,117.8 95.5,213.3 213.3,213.3 117.8,0 213.2,-95.5 213.2,-213.3"
         style="fill:#ffffff;fill-opacity:1;fill-rule:nonzero;stroke:none"
         id="path244" /><path
         d="m 10631.5,18459.5 c 0,-117.8 -95.4,-213.3 -213.2,-213.3 -117.8,0 -213.3,95.5 -213.3,213.3 0,117.8 95.5,213.2 213.3,213.2 117.8,0 213.2,-95.4 213.2,-213.2"
         style="fill:#ffffff;fill-opacity:1;fill-rule:nonzero;stroke:none"
         id="path246" /><path
         d="m 11830.8,15461.4 c 0,-117.8 -95.5,-213.2 -213.3,-213.2 -117.8,0 -213.2,95.4 -213.2,213.2 0,117.8 95.4,213.2 213.2,213.2 117.8,0 213.3,-95.4 213.3,-213.2"
         style="fill:#ffffff;fill-opacity:1;fill-rule:nonzero;stroke:none"
         id="path248" /><path
         d="m 14629,20857.9 c 0,-117.7 -95.5,-213.2 -213.3,-213.2 -117.7,0 -213.2,95.5 -213.2,213.2 0,117.8 95.5,213.3 213.2,213.3 117.8,0 213.3,-95.5 213.3,-213.3"
         style="fill:#ffffff;fill-opacity:1;fill-rule:nonzero;stroke:none"
         id="path250" /><path
         d="m 14479.1,13662.5 c 0,-117.7 -95.5,-213.2 -213.3,-213.2 -117.7,0 -213.2,95.5 -213.2,213.2 0,117.8 95.5,213.3 213.2,213.3 117.8,0 213.3,-95.5 213.3,-213.3"
         style="fill:#ffffff;fill-opacity:1;fill-rule:nonzero;stroke:none"
         id="path252" /><path
         d="m 17227.3,20857.9 c 0,-117.7 -95.5,-213.2 -213.2,-213.2 -117.8,0 -213.3,95.5 -213.3,213.2 0,117.8 95.5,213.3 213.3,213.3 117.7,0 213.2,-95.5 213.2,-213.3"
         style="fill:#ffffff;fill-opacity:1;fill-rule:nonzero;stroke:none"
         id="path254" /><path
         d="m 15778.2,18259.6 c 0,-117.8 -95.4,-213.2 -213.2,-213.2 -117.8,0 -213.3,95.4 -213.3,213.2 0,117.8 95.5,213.3 213.3,213.3 117.8,0 213.2,-95.5 213.2,-213.3"
         style="fill:#ffffff;fill-opacity:1;fill-rule:nonzero;stroke:none"
         id="path256" /><path
         d="m 18476.5,18259.6 c 0,-117.8 -95.5,-213.2 -213.2,-213.2 -117.8,0 -213.3,95.4 -213.3,213.2 0,117.8 95.5,213.3 213.3,213.3 117.7,0 213.2,-95.5 213.2,-213.3"
         style="fill:#ffffff;fill-opacity:1;fill-rule:nonzero;stroke:none"
         id="path258" /><path
         d="m 17077.4,15461.4 c 0,-117.8 -95.5,-213.2 -213.2,-213.2 -117.8,0 -213.3,95.4 -213.3,213.2 0,117.8 95.5,213.2 213.3,213.2 117.7,0 213.2,-95.4 213.2,-213.2"
         style="fill:#ffffff;fill-opacity:1;fill-rule:nonzero;stroke:none"
         id="path260" /><path
         d="m 11639.3,15477.3 2627.1,-1784.7 2578.6,1785.6 1390.6,2779.7 -1237.3,2571.4 h -2571.2 l -2540,1.8 -1438.2,-2374.8 z m 2627.4,-1845.3 -14.2,9.6 -2653.9,1803 -1205.3,3016.3 1465.7,2420.2 5170.8,-1.8 6.8,-14.1 1254.7,-2607.7 -5.5,-10.9 -1401.8,-2802.2 -5.3,-3.7 -2612,-1808.7"
         style="fill:#ffffff;fill-opacity:1;fill-rule:nonzero;stroke:none"
         id="path262" /><path
         d="m 12794.2,18256.1 1470.6,-4507.9 1273.7,4509.6 -1115.6,2543.7 z m 1474.1,-4679.6 -1528.9,4686.6 6.3,10 1685.5,2634 1160.3,-2645.7 -2.5,-8.6 -1320.7,-4676.3"
         style="fill:#ffffff;fill-opacity:1;fill-rule:nonzero;stroke:none"
         id="path264" /><path
         d="m 15576.4,18231 h -2809.6 l -2342.1,199 4.2,49.8 2340,-198.9 2813,0.1 2692.7,1.7 v -49.9 l -2698.2,-1.8"
         style="fill:#ffffff;fill-opacity:1;fill-rule:nonzero;stroke:none"
         id="path266" /><path
         d="m 11581.4,15436 14.5,34.5 1205.3,2885.4 -951.5,2491.3 46.7,17.8 958.6,-2510 -3.9,-9.1 -1194.6,-2860 5169.4,0.4 -1289.1,2870.9 1519.2,2513.7 42.8,-25.9 -1505.7,-2491.2 1310,-2917.5 -5321.7,-0.3"
         style="fill:#ffffff;fill-opacity:1;fill-rule:nonzero;stroke:none"
         id="path268" /><path
         d="m 4774.43,28201.3 c -8.68,0 -17.5,1.1 -26.3,3.3 -57.26,14.5 -91.96,72.6 -77.49,129.9 29.66,117.3 64.85,234.9 104.6,349.5 15.32,44.2 56.73,71.9 101,71.9 11.64,0 23.46,-1.9 35.07,-5.9 55.78,-19.3 85.32,-80.3 65.99,-136.1 -37.74,-108.8 -71.14,-220.5 -99.29,-331.8 -3.86,-15.3 -10.82,-29 -20.06,-40.5 -20.05,-25.1 -50.79,-40.3 -83.52,-40.3 m 328.59,871.8 c -16.41,0 -33.06,3.8 -48.66,11.8 -52.56,26.9 -73.35,91.4 -46.42,143.9 55.17,107.7 115.71,214.4 179.89,317.2 20.13,32.6 54.98,50.4 90.64,50.4 19.41,0 39.06,-5.3 56.72,-16.3 50.07,-31.3 65.32,-97.3 34.06,-147.4 -61.01,-97.7 -118.54,-199.1 -170.95,-301.4 -3.35,-6.5 -7.29,-12.6 -11.7,-18.1 -20.54,-25.7 -51.6,-40.1 -83.58,-40.1 m 514.16,777.2 c -24.15,0 -48.44,8.1 -68.44,24.8 -44.76,37.3 -51.3,103.5 -15.09,148.8 l 1.46,1.8 c 77.6,93.1 160.11,183.9 245.17,269.8 20.94,21.1 48.48,31.7 76.02,31.7 27.2,0 54.4,-10.3 75.25,-31 39.2,-38.8 42.07,-100.4 8.38,-142.6 -2.36,-3 -4.92,-5.8 -7.62,-8.6 -80.84,-81.6 -159.22,-167.8 -232.96,-256.3 -21.14,-25.3 -51.55,-38.4 -82.17,-38.4"
         style="fill:#ebf1fe;fill-opacity:1;fill-rule:nonzero;stroke:none"
         id="path270" /><path
         d="m 11740.6,30141.3 c -27.2,0 -54.3,10.3 -75.1,30.8 -81.7,80.6 -168.1,158.8 -256.9,232.5 -44.9,37.3 -51.5,103.6 -15.2,149 l 1.3,1.6 c 21.1,25.5 51.6,38.6 82.3,38.6 24.1,0 48.3,-8.1 68.3,-24.7 93.4,-77.6 184.4,-159.9 270.4,-244.7 39.3,-38.8 42.2,-100.6 8.5,-142.8 -2.3,-2.9 -4.8,-5.7 -7.5,-8.4 -20.9,-21.3 -48.5,-31.9 -76.1,-31.9"
         style="fill:#9ebcfa;fill-opacity:1;fill-rule:nonzero;stroke:none"
         id="path272" /><path
         d="m 6290.18,30494.3 c -32.26,0 -64.14,14.5 -85.18,42.1 -35.79,47.1 -26.47,113.9 20.34,149.9 96.33,73.3 197.01,143.3 299.28,208.1 17.75,11.3 37.55,16.6 57.11,16.6 35.43,0 70.09,-17.6 90.46,-49.7 25.06,-39.6 20.92,-89.4 -6.77,-124 -7.22,-9 -16.06,-17 -26.37,-23.6 -97.09,-61.5 -192.71,-127.9 -284.17,-197.6 -19.36,-14.7 -42.12,-21.8 -64.7,-21.8"
         style="fill:#ebf1fe;fill-opacity:1;fill-rule:nonzero;stroke:none"
         id="path274" /><g
         id="g276"><g
           id="g278"
           clip-path="url(#clipPath282)"><path
             d="m 11008.4,30717.6 c -19.2,0 -38.7,5.2 -56.3,16.1 -97.9,60.9 -199.3,118.2 -301.6,170.3 -52.6,26.8 -73.5,91.2 -46.7,143.8 19.1,37.1 56.5,58.4 95.4,58.4 16.3,0 32.9,-3.7 48.5,-11.7 107.5,-54.8 214.3,-115.1 317.3,-179.1 50.2,-31.2 65.6,-97.2 34.4,-147.3 -2.3,-3.7 -4.7,-7.1 -7.4,-10.4 -20.7,-26 -51.8,-40.1 -83.6,-40.1"
             style="fill:url(#linearGradient288);fill-opacity:1;fill-rule:nonzero;stroke:none"
             id="path290" /></g></g><path
         d="m 7089.63,30971.2 c -40.7,0 -79.6,23.4 -97.47,62.9 -24.38,53.8 -0.55,117.1 53.26,141.5 110.28,50 224.09,95.8 338.18,136.2 11.81,4.2 23.85,6.1 35.7,6.1 44.02,0 85.26,-27.3 100.81,-71.2 12.81,-36.2 4.98,-74.6 -17.33,-102.5 -12.03,-15.1 -28.25,-27.1 -47.78,-34 -108.42,-38.4 -216.51,-81.9 -321.32,-129.4 -14.31,-6.5 -29.3,-9.6 -44.05,-9.6"
         style="fill:#ebf1fe;fill-opacity:1;fill-rule:nonzero;stroke:none"
         id="path292" /><g
         id="g294"><g
           id="g296"
           clip-path="url(#clipPath300)"><path
             d="m 10167.7,31118.1 c -11.6,0 -23.3,1.8 -34.9,5.8 -108.7,37.5 -220.31,70.7 -331.88,98.7 -57.26,14.4 -92.06,72.5 -77.69,129.8 12.23,48.5 55.8,80.9 103.7,80.9 8.6,0 17.34,-1.1 26.06,-3.3 117.49,-29.4 235.11,-64.4 349.51,-103.9 55.9,-19.2 85.5,-80.1 66.3,-135.9 -4.1,-11.9 -10.1,-22.6 -17.5,-31.9 -20.3,-25.4 -51.2,-40.2 -83.6,-40.2"
             style="fill:url(#linearGradient306);fill-opacity:1;fill-rule:nonzero;stroke:none"
             id="path308" /></g></g><path
         d="m 7975.44,31258.7 c -49.76,0 -94.3,34.9 -104.68,85.5 -11.86,57.9 25.47,114.4 83.33,126.2 118.79,24.4 239.91,43.8 359.92,58 4.26,0.5 8.5,0.8 12.69,0.8 53.44,0 99.61,-40 106.02,-94.5 3.5,-29.5 -5.41,-57.7 -22.64,-79.2 -16.94,-21.2 -41.93,-36 -71.03,-39.5 -114.05,-13.4 -229.16,-32 -342.07,-55.1 -7.22,-1.5 -14.44,-2.2 -21.54,-2.2 m 822.66,210.4 c 9.04,50.2 52.97,87.9 105.31,87.9 0.72,0 1.44,0 2.16,0 121.05,-2.5 243.51,-10.3 363.98,-23.2 16.92,-1.8 32.5,-7.4 45.95,-16 -39.03,-0.3 -77.33,-0.7 -115.12,-1 -139.38,-1.3 -274.21,-17.8 -402.28,-47.7"
         style="fill:#ebf1fe;fill-opacity:1;fill-rule:nonzero;stroke:none"
         id="path310" /><g
         id="g312"><g
           id="g314"
           clip-path="url(#clipPath318)"><path
             d="m 9258.32,31320.5 c -3.79,0 -7.6,0.2 -11.45,0.6 -114.47,12.3 -230.8,19.7 -345.76,22.1 -59.05,1.2 -105.92,50.1 -104.69,109.1 0.13,5.7 0.7,11.3 1.68,16.8 128.07,29.9 262.9,46.4 402.28,47.7 37.79,0.3 76.09,0.7 115.12,1 33.23,-21.1 53.5,-59.9 49.03,-101.7 -2.24,-21 -10.42,-39.9 -22.7,-55.3 -19.8,-24.8 -50.21,-40.3 -83.51,-40.3"
             style="fill:url(#linearGradient324);fill-opacity:1;fill-rule:nonzero;stroke:none"
             id="path326" /></g></g><path
         d="m 4657.07,27459.6 c -2.4,0 -4.82,0.1 -7.25,0.3 -58.9,3.9 -103.5,54.8 -99.58,113.8 3.86,57.9 8.97,116.6 15.23,174.6 5.79,54.9 52.2,95.5 106.14,95.5 3.83,0 7.7,-0.2 11.6,-0.6 58.7,-6.3 101.2,-59 94.88,-117.7 -5.9,-55.2 -10.79,-111.1 -14.43,-166.1 -1.5,-22.6 -9.96,-43.1 -23.1,-59.5 -19.71,-24.7 -50,-40.3 -83.49,-40.3"
         style="fill:#ebf1fe;fill-opacity:1;fill-rule:nonzero;stroke:none"
         id="path328" /><path
         d="m 5728.05,24380.3 c -29.08,0 -58.05,11.7 -79.16,35 -39.03,42.9 -77.85,87.4 -115.32,132.2 -37.88,45.3 -32.07,112.6 13.42,150.6 20.01,16.8 44.34,24.9 68.54,24.9 30.57,0 60.94,-13 82.1,-38.3 35.58,-42.5 72.44,-84.8 109.52,-125.6 35.83,-39.4 36.72,-98.2 4.5,-138.6 -3.5,-4.3 -7.39,-8.5 -11.68,-12.4 -20.5,-18.7 -46.25,-27.8 -71.92,-27.8"
         style="fill:#ebf1fe;fill-opacity:1;fill-rule:nonzero;stroke:none"
         id="path330" /><path
         d="m 8808.52,23014.8 c -49.45,0 -98.8,0.9 -147.86,2.6 -59.05,2 -105.21,51.5 -103.2,110.5 2,57.9 49.47,103.3 106.8,103.3 1.25,0 2.51,-0.1 3.77,-0.1 46.53,-1.6 93.35,-2.4 140.24,-2.4 66.96,0 134.05,1.6 200.66,4.9 1.79,0.1 3.57,0.1 5.33,0.1 56.65,0 103.92,-44.5 106.71,-101.7 1.34,-27.1 -7.52,-52.3 -23.23,-71.9 -18.48,-23.2 -46.44,-38.6 -78.33,-40.1 -69.98,-3.5 -140.52,-5.2 -210.89,-5.2"
         style="fill:#9ebcfa;fill-opacity:1;fill-rule:nonzero;stroke:none"
         id="path332" /><g
         id="g334"><g
           id="g336"
           clip-path="url(#clipPath340)"><path
             d="m 8099.14,23075.7 c -6.05,0 -12.18,0.5 -18.35,1.6 -117.52,20.3 -235.54,46 -350.76,76.1 -57.14,15 -91.33,73.4 -76.37,130.6 12.56,48 55.95,79.8 103.42,79.8 8.96,0 18.06,-1.1 27.12,-3.5 109.39,-28.6 221.45,-52.9 333.1,-72.3 58.19,-10 97.19,-65.4 87.11,-123.6 -3.19,-18.3 -10.87,-34.8 -21.75,-48.4 -19.91,-24.9 -50.48,-40.3 -83.52,-40.3"
             style="fill:url(#linearGradient346);fill-opacity:1;fill-rule:nonzero;stroke:none"
             id="path348" /></g></g><path
         d="m 9578.41,23086.2 c -50.48,0 -95.38,35.9 -105.02,87.3 -10.87,58.1 27.39,114 85.46,124.7 111.16,20.9 222.91,46.6 332.13,76.7 9.49,2.6 19.04,3.8 28.43,3.8 46.94,0 89.99,-31.1 103.09,-78.6 9.4,-34.3 1,-69.3 -19.7,-95.1 -13.58,-17.1 -32.49,-30.1 -55.1,-36.3 -114.92,-31.6 -232.51,-58.8 -349.52,-80.7 -6.64,-1.2 -13.25,-1.8 -19.77,-1.8"
         style="fill:#9ebcfa;fill-opacity:1;fill-rule:nonzero;stroke:none"
         id="path350" /><g
         id="g352"><g
           id="g354"
           clip-path="url(#clipPath358)"><path
             d="m 7218.24,23331.4 c -13.68,0 -27.58,2.6 -41,8.2 -109.88,45.6 -219.25,96.6 -325.13,151.5 -52.45,27.1 -72.95,91.7 -45.76,144.1 18.99,36.6 56.39,57.7 95.12,57.7 16.54,0 33.32,-3.8 49.01,-11.9 100.57,-52.2 204.46,-100.5 308.84,-143.9 54.52,-22.6 80.38,-85.2 57.72,-139.8 -3.95,-9.5 -9.09,-18.1 -15.21,-25.7 -20.35,-25.5 -51.34,-40.2 -83.59,-40.2"
             style="fill:url(#linearGradient364);fill-opacity:1;fill-rule:nonzero;stroke:none"
             id="path366" /></g></g><g
         id="g368"><g
           id="g370"
           clip-path="url(#clipPath374)"><path
             d="m 10455.5,23352.4 c -41.5,0 -81,24.3 -98.4,64.8 -23.2,54.3 1.9,117.2 56.2,140.4 104.2,44.7 207.6,94.1 307.3,147.2 16,8.5 33.2,12.5 50.1,12.5 38.3,0 75.3,-20.6 94.5,-56.7 20.7,-38.9 15,-84.7 -10.8,-117 -8.9,-11.1 -20.1,-20.6 -33.4,-27.6 -104.9,-55.9 -213.8,-108 -323.5,-155 -13.7,-5.8 -28,-8.6 -42,-8.6"
             style="fill:url(#linearGradient380);fill-opacity:1;fill-rule:nonzero;stroke:none"
             id="path382" /></g></g><path
         d="m 6415.65,23774 c -21.27,0 -42.73,6.3 -61.44,19.5 -71.71,50.4 -142.76,103.7 -211.12,158.3 -24.77,19.8 -49.22,39.8 -73.44,60 -45.31,37.9 -52.73,105.5 -13.5,150.6 21.13,25.3 51.52,38.4 82.12,38.4 24.18,0 48.49,-8.1 68.51,-24.8 23,-19.3 46.27,-38.3 69.8,-57.1 65.01,-51.9 132.5,-102.6 200.68,-150.5 48.31,-34 59.91,-100.7 25.92,-149 -1.28,-1.8 -2.59,-3.6 -3.96,-5.3 -20.91,-26.2 -52.02,-40.1 -83.57,-40.1"
         style="fill:#ebf1fe;fill-opacity:1;fill-rule:nonzero;stroke:none"
         id="path384" /><path
         d="m 11633.6,24117.3 c -58.1,9 -117.1,14 -177.4,14 -31.9,0 -64,-1.4 -96.5,-4.3 33.1,26.6 65.6,53.8 97.6,81.3 20.2,17.4 45.1,25.9 69.8,25.9 30,0 59.9,-12.6 81.1,-37.2 19.7,-22.9 28,-51.8 25.4,-79.7"
         style="fill:#9ebcfa;fill-opacity:1;fill-rule:nonzero;stroke:none"
         id="path386" /><g
         id="g388"><g
           id="g390"
           clip-path="url(#clipPath394)"><path
             d="m 11252.7,23803.6 c -33.2,0 -65.9,15.4 -86.8,44.3 -34.6,47.9 -23.8,114.6 24,149.3 57.5,41.6 114.3,85 169.8,129.8 32.5,2.9 64.6,4.3 96.5,4.3 60.3,0 119.3,-5 177.4,-14 -1.9,-20.3 -9.6,-40.1 -22.9,-56.7 -4.1,-5.1 -8.7,-9.9 -13.8,-14.4 -90.2,-77.6 -185,-152.4 -281.7,-222.3 -18.9,-13.7 -40.8,-20.3 -62.5,-20.3"
             style="fill:url(#linearGradient400);fill-opacity:1;fill-rule:nonzero;stroke:none"
             id="path402" /></g></g><path
         d="m 11931.3,24419.5 c -25.2,0 -50.4,8.9 -70.8,26.8 -44.3,39.1 -48.4,106.6 -9.4,151 74.4,84.2 146.4,173 214.8,264.8 20.8,28.1 53.1,43 85.8,43 22.2,0 44.7,-6.9 63.8,-21.2 47.4,-35.3 57.2,-102.3 21.9,-149.6 -29.6,-39.8 -59.8,-78.9 -90.5,-117.3 -43.8,-54.9 -89.4,-109.2 -135.4,-161.3 -21.1,-23.9 -50.6,-36.2 -80.2,-36.2 m 528.2,749.4 c -17.5,0 -35.3,4.3 -51.7,13.3 -51.6,28.6 -70.4,93.7 -41.8,145.3 54.8,99.3 106,201.9 152.2,305.1 17.6,39.7 56.7,63.3 97.7,63.3 14.6,0 29.4,-3 43.6,-9.4 53.9,-24.1 78,-87.4 53.9,-141.2 -48.6,-108.7 -102.5,-216.7 -160.2,-321.2 -3,-5.4 -6.4,-10.5 -10.2,-15.1 -20.6,-25.8 -51.7,-40.1 -83.5,-40.1 m 352.4,846.4 c -9.9,0 -20,1.4 -30,4.3 -56.7,16.5 -89.3,75.9 -72.8,132.6 31.7,108.7 59.1,220 81.4,330.9 10.2,50.8 54.8,85.9 104.7,85.9 7,0 14.1,-0.7 21.3,-2.2 57.9,-11.6 95.3,-68 83.7,-125.9 -23.6,-116.8 -52.4,-234 -85.7,-348.5 -4.1,-13.8 -10.6,-26.2 -19.1,-36.8 -20.1,-25.2 -50.9,-40.3 -83.5,-40.3"
         style="fill:#9ebcfa;fill-opacity:1;fill-rule:nonzero;stroke:none"
         id="path404" /><path
         d="m 12969.3,26921.3 c -2.2,0 -4.4,0 -6.6,0.2 -59,3.6 -103.8,54.3 -100.2,113.3 3.4,54.8 5.7,110.8 6.8,166.4 1.2,58.4 48.8,104.7 106.9,104.7 0.7,0 1.5,0 2.2,0 59,-1.2 105.9,-50 104.7,-109 -1.1,-58.5 -3.6,-117.5 -7.1,-175.3 -1.4,-22.8 -9.9,-43.5 -23.2,-60.1 -19.7,-24.6 -50,-40.2 -83.5,-40.2"
         style="fill:#9ebcfa;fill-opacity:1;fill-rule:nonzero;stroke:none"
         id="path406" /><path
         d="m 11840,28336.3 c -4.5,20.8 -21.7,36.5 -42.9,39.1 l -604,72.7 c -121.6,256.7 -285,495.9 -488,706.3 l 145.2,590.3 c 5,20.7 -3.6,42.4 -21.5,54 l -613.1,395.6 c -17.9,11.6 -41.2,10.5 -57.9,-2.7 l -478.18,-375.4 c -275.31,98.4 -560.59,148.7 -844.63,153.8 l -315.01,520.4 c -11.04,18.2 -32.44,27.5 -53.29,23 l -713.28,-153.7 c -20.84,-4.5 -36.55,-21.8 -39.09,-42.9 l -72.69,-604 c -256.75,-121.6 -495.95,-285 -706.33,-488 l -590.34,145.1 c -20.71,5.1 -42.36,-3.5 -53.92,-21.4 l -395.68,-613.1 c -11.56,-17.9 -10.48,-41.2 2.68,-57.9 l 375.42,-478.2 c -98.33,-275.3 -148.72,-560.6 -153.77,-844.6 l -520.4,-315.1 c -18.24,-11 -27.48,-32.4 -22.97,-53.2 l 153.71,-713.3 c 4.5,-20.9 21.73,-36.6 42.88,-39.1 l 603.97,-72.7 c 121.59,-256.8 285.01,-495.9 488.02,-706.3 l -145.13,-590.4 c -5.1,-20.7 3.51,-42.3 21.42,-53.9 l 613.08,-395.7 c 17.92,-11.5 41.19,-10.5 57.96,2.7 l 478.17,375.4 c 275.31,-98.3 560.6,-148.7 844.63,-153.7 l 315.01,-520.4 c 11.03,-18.3 32.43,-27.5 53.29,-23 l 713.28,153.7 c 20.85,4.5 36.54,21.7 39.09,42.9 l 72.69,603.9 c 256.71,121.6 495.91,285.1 706.31,488.1 l 590.4,-145.2 c 20.7,-5 42.3,3.5 53.9,21.5 l 395.6,613 c 11.6,18 10.5,41.2 -2.6,58 l -375.4,478.2 c 98.3,275.3 148.7,560.6 153.7,844.6 l 520.4,315 c 18.3,11 27.5,32.5 23,53.3 l -153.7,713.3"
         style="fill:#7d97f4;fill-opacity:1;fill-rule:nonzero;stroke:none"
         id="path408" /><path
         d="m 8223.01,27324.4 c -5.26,-150.2 48.25,-293.3 150.7,-403.2 211.43,-226.8 567.99,-239.3 794.78,-27.8 226.93,211.4 239.28,568 27.83,794.8 -211.44,226.7 -568,239.2 -794.79,27.8 -20.56,-19.2 -39.45,-39.6 -56.69,-61.2 -74.84,-93.7 -117.55,-208.4 -121.83,-330.4 z m 1062.15,-556.2 c -295.81,-275.7 -760.81,-259.5 -1036.62,36.3 -133.61,143.3 -203.41,330.1 -196.53,525.9 6.84,195.7 89.5,377.1 232.85,510.7 295.81,275.8 760.8,259.5 1036.62,-36.3 250.89,-269.1 260.06,-678.2 36.89,-957.6 -22.12,-27.7 -46.55,-54.1 -73.21,-79"
         style="fill:#bdd0fb;fill-opacity:1;fill-rule:nonzero;stroke:none"
         id="path410" /><path
         d="m 10176.7,26174.3 c 38.3,48 74.4,98.1 108.2,150.4 10.6,16.5 21,33.1 31.1,49.9 49.7,82.8 92.8,169.5 128.6,258.6 0.5,1.2 0.9,2.4 1.4,3.7 1.4,3.4 2.8,6.9 4.1,10.3 2.6,6.8 5.2,13.5 7.8,20.3 6.7,17.8 0.8,37.2 -13.3,48.5 -3.4,2.7 -7.3,5 -11.6,6.6 -22.1,8.4 -46.8,-2.9 -55.1,-24.9 -43,-113.7 -98.4,-223.6 -164.9,-326.6 -330.02,-511.5 -887.95,-789 -1455.75,-785.8 -315.83,1.7 -634.72,90.4 -919.18,274 -49.89,32.2 -97.79,66.7 -143.53,103.2 -307.93,246.1 -520.09,587.7 -604.23,978.2 -96.69,448.6 -12.89,908 235.93,1293.5 513.96,796.2 1579.08,1025.5 2374.92,511.8 49.07,-31.6 96.36,-65.7 141.68,-101.9 196.36,-157 356.26,-355.2 467.46,-580.9 2.9,-5.9 6.9,-10.8 11.7,-14.5 12.5,-10.1 30.2,-12.6 45.6,-5 21.1,10.5 29.9,36 19.4,57.3 -116.7,237 -284.5,445.1 -490.73,609.9 -47.57,38 -97.2,73.8 -148.69,107 -835.56,539.3 -1954.14,298 -2493.23,-537.3 -261.23,-404.7 -349.17,-887 -247.68,-1357.9 88.33,-409.9 311.07,-768.6 634.32,-1026.9 48.04,-38.4 98.32,-74.6 150.66,-108.4 404.78,-261.2 887.01,-349.2 1357.92,-247.7 410.05,88.4 768.75,311.2 1027.13,634.6"
         style="fill:#bdd0fb;fill-opacity:1;fill-rule:nonzero;stroke:none"
         id="path412" /><g
         id="g414"><g
           id="g416"
           clip-path="url(#clipPath420)"><path
             d="m 16207.4,31485.3 c -35.6,0.8 -70.9,1.5 -106.4,2.2 3.2,4.1 7,8 11.3,11.4 12.2,9.6 26.7,14.3 41.1,14.3 19.4,0 38.7,-8.5 51.7,-25 0.8,-0.9 1.5,-1.9 2.3,-2.9"
             style="fill:url(#linearGradient426);fill-opacity:1;fill-rule:nonzero;stroke:none"
             id="path428" /></g></g><g
         id="g430"><g
           id="g432"
           clip-path="url(#clipPath436)"><path
             d="m 16252.2,31248.8 c -20.8,0 -41.3,9.8 -54.2,28.2 -30.7,43.8 -63.1,87.2 -96.3,129.1 -19.3,24.3 -18.9,57.9 -0.7,81.4 35.5,-0.7 70.8,-1.4 106.4,-2.2 34.1,-43 67.3,-87.6 98.8,-132.5 17.2,-24.6 15.4,-56.8 -2.5,-79.1 -3.8,-4.8 -8.4,-9.2 -13.7,-12.9 -11.5,-8.1 -24.7,-12 -37.8,-12"
             style="fill:url(#linearGradient442);fill-opacity:1;fill-rule:nonzero;stroke:none"
             id="path444" /></g></g><g
         id="g446"><g
           id="g448"
           clip-path="url(#clipPath452)"><path
             d="m 11521,30979.7 c -10.7,0 -21.5,2.6 -31.5,8.1 -32.1,17.4 -43.9,57.5 -26.4,89.5 48.2,88.7 102.2,176.3 160.1,260.1 8.8,12.8 17.7,25.4 26.6,38 12.3,18.2 32.5,27.7 53.1,27.7 13.6,0 27.3,-4.1 39.1,-12.6 29.7,-21.2 36.4,-62.5 15.2,-92.2 -8.5,-11.7 -16.8,-23.6 -25.1,-35.8 -55.5,-80.2 -107,-163.7 -153,-248.3 -1.9,-3.5 -4.1,-6.7 -6.5,-9.7 -12.7,-15.9 -31.9,-24.8 -51.6,-24.8"
             style="fill:url(#linearGradient458);fill-opacity:1;fill-rule:nonzero;stroke:none"
             id="path460" /></g></g><path
         d="m 11919.9,31537.6 c -15.9,0 -32,5.8 -44.7,17.4 -26.8,24.7 -28.2,66.1 -3.9,93.4 79.4,86.2 164.7,168.2 253.6,243.6 12.4,10.5 27.6,15.6 42.7,15.6 18.7,0 37.3,-7.9 50.4,-23.3 20.7,-24.4 20.6,-59.7 1.2,-83.9 -2.6,-3.2 -5.5,-6.3 -8.9,-9.2 -84.7,-71.8 -166.1,-150 -241.7,-232.3 -13.1,-14.1 -30.8,-21.3 -48.7,-21.3 m 3966.1,110.5 c -3,2.1 -5.9,4.5 -8.7,7.2 -65.7,64.5 -135.5,126.3 -207.4,183.7 -15.2,12.2 -30.6,24.1 -46.1,36 -28.9,22.2 -34.5,63.6 -12.3,92.6 13.3,16 33.6,25.2 54,25.2 13.5,0 27.1,-4.1 38.6,-12.9 16.3,-12.4 32.3,-25 48.2,-37.7 75.4,-60.2 148.6,-125 217.5,-192.6 20.2,-19.8 25,-49.4 14.2,-73.8 -32.5,-9.1 -65.6,-18.4 -98,-27.7"
         style="fill:#ebf1fe;fill-opacity:1;fill-rule:nonzero;stroke:none"
         id="path462" /><g
         id="g464"><g
           id="g466"
           clip-path="url(#clipPath470)"><path
             d="m 15923.6,31636.4 c -13.2,0 -26.3,3.9 -37.6,11.7 32.4,9.3 65.5,18.6 98,27.7 -2.2,-5.1 -5.2,-10 -8.8,-14.5 -1.4,-1.8 -2.9,-3.5 -4.5,-5.1 -12.9,-13.2 -30,-19.8 -47.1,-19.8"
             style="fill:url(#linearGradient476);fill-opacity:1;fill-rule:nonzero;stroke:none"
             id="path478" /></g></g><path
         d="m 12442.9,31981 c -21.6,0 -42.7,10.6 -55.3,29.9 -20,30.5 -11.5,71.3 19,91.5 97.7,63.9 200.5,122.4 305.4,173.8 9.4,4.6 19.3,6.7 29,6.7 24.5,0 47.9,-13.5 59.4,-37 11.6,-23.7 7.7,-51 -7.7,-70.3 -5.9,-7.4 -13.5,-13.6 -22.6,-18 -100.1,-49.1 -198,-104.8 -291.1,-165.8 -11.2,-7.3 -23.7,-10.8 -36.1,-10.8 m 2936,72.1 c -11.4,0 -22.9,3 -33.4,9.1 -96.2,56.6 -196.8,107.7 -299,151.9 -33.5,14.5 -48.9,53.3 -34.4,86.8 10.8,24.8 35.2,39.8 60.7,39.8 8.8,0 17.6,-1.7 26.1,-5.4 107.1,-46.3 212.6,-99.9 313.5,-159.2 31.4,-18.4 42,-58.9 23.5,-90.4 -1.6,-2.8 -3.5,-5.4 -5.4,-7.8 -12.8,-16 -32,-24.8 -51.6,-24.8 m -2320.7,229.4 c -27.4,0 -53,17.2 -62.5,44.6 -11.9,34.5 6.4,72.1 40.9,84 110.4,38 224.3,69.7 338.7,94.1 4.6,0.9 9.2,1.4 13.8,1.4 30.5,0 57.9,-21.2 64.5,-52.3 4.3,-20.1 -1.1,-40.1 -13,-55 -9.2,-11.5 -22.3,-20.1 -37.8,-23.4 -109.1,-23.2 -217.8,-53.4 -323.1,-89.7 -7.1,-2.5 -14.4,-3.7 -21.5,-3.7 m 1691.1,42.6 c -6.1,0 -12.3,0.9 -18.4,2.6 -107,31.2 -217.1,56 -327.2,73.7 -36,5.9 -60.5,39.8 -54.8,75.8 5.3,32.5 33.3,55.5 65.1,55.5 3.5,0 7.1,-0.2 10.6,-0.8 115.6,-18.6 231.1,-44.6 343.2,-77.3 35,-10.2 55.2,-46.9 45,-81.9 -2.5,-8.5 -6.6,-16.2 -11.8,-22.7 -12.5,-15.6 -31.5,-24.9 -51.7,-24.9 m -1020.5,100.2 c -33.9,0 -62.8,25.9 -65.8,60.3 -3.1,36.2 23.7,68.3 60,71.5 82.5,7.3 166,10.9 249.4,10.9 34.1,0 68.2,-0.6 102.2,-1.8 36.4,-1.3 64.9,-32 63.6,-68.4 -0.6,-14.7 -5.8,-28.1 -14.4,-38.8 -12.1,-15.2 -30.8,-24.9 -51.6,-24.9 -0.8,0 -1.6,0 -2.4,0 -32.4,1.2 -65,1.8 -97.6,1.8 -79.4,0 -159,-3.5 -237.6,-10.4 -2,-0.1 -3.9,-0.2 -5.8,-0.2"
         style="fill:#ebf1fe;fill-opacity:1;fill-rule:nonzero;stroke:none"
         id="path480" /><path
         d="m 14063.5,26864 c -35.4,0 -64.7,28 -65.9,63.7 -1.3,36.4 27.2,67.1 63.7,68.3 109.4,3.8 219.9,14.3 328.5,31.3 3.5,0.5 6.9,0.8 10.3,0.8 32,0 60.1,-23.3 65.2,-55.9 2.9,-19 -2.6,-37.4 -13.7,-51.4 -10,-12.5 -24.4,-21.4 -41.4,-24 -113.8,-17.8 -229.6,-28.8 -344.3,-32.8 -0.8,0 -1.6,0 -2.4,0 m -337.8,8.8 c -1.9,0 -3.8,0.1 -5.7,0.3 -114.8,9.9 -230,27.1 -342.3,50.8 -35.7,7.6 -58.5,42.7 -50.9,78.3 6.5,31.1 34,52.4 64.6,52.4 4.5,0 9.1,-0.4 13.6,-1.4 107.1,-22.7 217,-39 326.4,-48.5 36.3,-3.1 63.3,-35.2 60.1,-71.5 -1.2,-13.5 -6.3,-25.7 -14.2,-35.5 -12.2,-15.2 -30.9,-24.9 -51.6,-24.9 m 1004.3,95.5 c -28.9,0 -55.4,19 -63.6,48.1 -9.9,35.1 10.4,71.6 45.6,81.5 105.5,29.9 210.3,66.5 311.3,108.9 8.4,3.5 17,5.1 25.5,5.1 25.8,0 50.4,-15.2 61,-40.6 9.6,-23 5.2,-48.5 -9.4,-66.8 -6.6,-8.3 -15.4,-15.2 -26,-19.6 -106,-44.4 -215.8,-82.8 -326.4,-114.1 -6,-1.7 -12.1,-2.5 -18,-2.5 m 621.9,260.5 c -23,0 -45.3,12 -57.5,33.3 -18.1,31.7 -7,71.9 24.6,90.2 95.1,54.2 188,114.9 276.2,180.5 11.8,8.8 25.7,13 39.4,13 20.1,0 40,-9.2 53,-26.6 18.3,-24.6 16.9,-57.7 -1.4,-80.6 -3.4,-4.3 -7.5,-8.3 -12.2,-11.8 -92.4,-68.7 -189.8,-132.4 -289.4,-189.3 -10.4,-5.9 -21.6,-8.7 -32.7,-8.7 m 540.8,403 c -17.4,0 -34.8,6.8 -47.8,20.4 -25.2,26.4 -23.8,68.1 2.2,93.4 79.1,75.6 154.5,157 224.1,241.9 13.1,15.9 32,24.1 51.1,24.1 14.8,0 29.6,-4.9 41.9,-15 28,-22.9 32.2,-64.1 9.7,-92.2 l -0.5,-0.7 c -73,-89 -152.2,-174.3 -235.1,-253.6 -12.8,-12.2 -29.2,-18.3 -45.6,-18.3 m 427.9,521.5 c -12.2,0 -24.5,3.3 -35.5,10.3 -30.7,19.6 -39.8,60.5 -20.2,91.2 58.9,92.6 112.9,189.6 160.3,288.5 11.3,23.5 35,37.5 59.7,37.5 9.5,0 19.2,-2.1 28.4,-6.5 32.9,-15.8 46.7,-55.2 31,-88.1 -49.7,-103.6 -106.2,-205.4 -168,-302.3 -1.3,-2.1 -2.6,-4 -4.1,-5.9 -12.9,-16 -32,-24.7 -51.6,-24.7 m 291.2,608.6 c -7,0 -14,1.1 -21,3.4 -34.6,11.6 -53.2,49.1 -41.6,83.6 35,104.1 63.9,211.2 85.9,318.6 6.4,31.3 34,52.8 64.7,52.8 4.4,0 8.8,-0.4 13.2,-1.3 35.8,-7.4 58.8,-42.2 51.5,-78 -23.1,-112.6 -53.4,-225.1 -90.1,-334.1 -2.5,-7.6 -6.3,-14.3 -11,-20.2 -12.5,-15.6 -31.5,-24.8 -51.6,-24.8"
         style="fill:#9ebcfa;fill-opacity:1;fill-rule:nonzero;stroke:none"
         id="path482" /><path
         d="m 16747.6,29425.9 c -1.7,0 -3.4,0 -5.2,0.2 -36.3,2.8 -63.5,34.7 -60.6,71 4.2,53.8 6.9,108 8,160.9 0.8,36.1 30.3,64.8 66.2,64.8 0.4,0 0.8,0 1.2,0 36.5,-0.8 65.4,-31 64.7,-67.4 -1.1,-55.6 -3.9,-112.3 -8.4,-168.7 -1.1,-13.7 -6.3,-26 -14.2,-36 -12.2,-15.2 -31,-24.8 -51.7,-24.8"
         style="fill:#9ebcfa;fill-opacity:1;fill-rule:nonzero;stroke:none"
         id="path484" /><path
         d="m 15995.5,30417.7 c -3,14 -14.5,24.5 -28.7,26.2 l -404.1,48.6 c -81.4,171.8 -190.8,331.9 -326.6,472.7 l 97.1,395 c 3.4,13.9 -2.3,28.3 -14.3,36.1 l -410.3,264.7 c -11.9,7.8 -27.5,7.1 -38.7,-1.7 l -320,-251.3 c -184.2,65.8 -375.1,99.6 -565.2,102.9 l -210.8,348.3 c -7.4,12.2 -21.7,18.3 -35.6,15.3 l -477.3,-102.8 c -14,-3 -24.5,-14.5 -26.2,-28.7 l -48.6,-404.1 c -171.8,-81.4 -331.9,-190.8 -472.7,-326.6 l -395,97.1 c -13.9,3.4 -28.4,-2.3 -36.1,-14.3 l -264.8,-410.3 c -7.7,-12 -7,-27.5 1.8,-38.8 l 251.2,-319.9 c -65.8,-184.3 -99.5,-375.2 -102.9,-565.2 l -348.2,-210.8 c -12.2,-7.4 -18.4,-21.7 -15.4,-35.7 l 102.9,-477.3 c 3,-13.9 14.5,-24.4 28.7,-26.1 l 404.1,-48.7 c 81.4,-171.8 190.8,-331.8 326.6,-472.6 l -97.1,-395 c -3.4,-13.9 2.3,-28.4 14.3,-36.1 l 410.3,-264.8 c 12,-7.7 27.5,-7 38.8,1.8 l 319.9,251.2 c 184.3,-65.8 375.1,-99.5 565.2,-102.9 l 210.8,-348.2 c 7.4,-12.2 21.7,-18.4 35.7,-15.4 l 477.3,102.9 c 13.9,3 24.4,14.5 26.1,28.7 l 48.7,404.1 c 171.8,81.4 331.8,190.7 472.6,326.6 l 395,-97.1 c 13.9,-3.4 28.4,2.3 36.1,14.3 l 264.8,410.3 c 7.7,11.9 7,27.5 -1.8,38.7 l -251.2,320 c 65.8,184.2 99.5,375.1 102.9,565.2 l 348.2,210.8 c 12.2,7.4 18.4,21.7 15.4,35.6 l -102.9,477.3"
         style="fill:#7d97f4;fill-opacity:1;fill-rule:nonzero;stroke:none"
         id="path486" /><path
         d="m 13682.4,29476.8 c 67,-71.8 157.9,-113.2 256,-116.7 98.1,-3.4 191.7,31.6 263.5,98.5 71.7,67.1 113.2,157.9 116.6,256 3.5,98.1 -31.5,191.7 -98.4,263.4 -138.2,148.3 -371.2,156.4 -519.5,18.3 -13.3,-12.5 -25.5,-25.7 -36.6,-39.6 -111.8,-140 -107.3,-345 18.4,-479.9 z m 609.6,-114.7 c -97.6,-91.1 -224.9,-138.7 -358.2,-134 -133.4,4.7 -257,61 -348,158.6 -187.8,201.5 -176.7,517.7 24.8,706.2 201.5,187.8 518.3,176.7 706,-24.8 91.1,-97.6 138.6,-224.8 133.9,-358.1 -3.8,-108.4 -41.7,-210.4 -108.2,-293.6 -15.3,-19.2 -32.1,-37.3 -50.3,-54.3"
         style="fill:#bdd0fb;fill-opacity:1;fill-rule:nonzero;stroke:none"
         id="path488" /><path
         d="m 14912.5,28948.7 c 26.1,32.7 50.7,66.9 73.8,102.7 46,71.2 84.8,147.1 115.3,225.8 1.4,3.6 2.7,7.1 4,10.7 10.4,27.4 1.3,57.4 -20.4,74.9 -5.3,4.2 -11.4,7.7 -18,10.2 -34.2,12.9 -72.2,-4.5 -85.1,-38.5 -27.8,-73.8 -63.8,-144.9 -106.7,-211.4 v 0 c -2.4,-3.7 -4.8,-7.3 -7.2,-10.9 -103.1,-156.4 -241.3,-281.3 -402.3,-367.1 -87.4,-46.6 -181.7,-81.7 -280.8,-104 l -2.4,-0.5 c -2.5,-0.6 -5,-1.2 -7.4,-1.7 -290.4,-62.5 -587.8,-8.3 -837.4,152.8 -32.3,20.8 -63.3,43.1 -92.9,66.8 -199.4,159.3 -336.7,380.5 -391.2,633.3 -62.6,290.4 -8.3,587.8 152.8,837.3 161.1,249.4 409.7,421.5 700.1,484.1 290.4,62.6 587.7,8.4 837.3,-152.7 31.8,-20.5 62.4,-42.5 91.7,-66 127.2,-101.6 230.7,-229.9 302.6,-376.1 4.5,-9 10.7,-16.5 18.1,-22.4 19.3,-15.4 46.7,-19.3 70.4,-7.6 32.6,16.2 46.2,55.7 30,88.5 -80.5,163.5 -196.3,307 -338.5,420.8 -32.9,26.2 -67.1,50.9 -102.6,73.8 -279.3,180.2 -612,240.9 -936.9,170.9 -324.8,-70.1 -603.1,-262.1 -783.2,-541.6 -180.3,-279.2 -241,-611.9 -170.9,-936.8 60.9,-282.9 214.6,-530.3 437.6,-708.5 33.1,-26.5 67.8,-51.5 103.9,-74.8 540.7,-348.9 1253,-224.3 1646.3,268"
         style="fill:#bdd0fb;fill-opacity:1;fill-rule:nonzero;stroke:none"
         id="path490" /><g
         id="g492"><g
           id="g494"
           clip-path="url(#clipPath498)"><path
             d="m 27973,20063 h -4925.7 v 1457.6 H 27973 V 20063"
             style="fill:url(#linearGradient504);fill-opacity:1;fill-rule:nonzero;stroke:none"
             id="path506" /></g></g><g
         id="g508"><g
           id="g510"
           clip-path="url(#clipPath514)"><path
             d="m 28029.3,25529.8 -4689.2,30.4 c -1115.6,7.2 -2034.3,-899.7 -2041.6,-2015.3 l -12,-1857.3 c -2.7,-420.5 339.1,-766.8 759.6,-769.6 l 7216.9,-46.8 c 420.6,-2.7 766.8,339.1 769.6,759.7 l 12,1857.3 c 7.2,1115.6 -899.6,2034.4 -2015.3,2041.6"
             style="fill:url(#linearGradient520);fill-opacity:1;fill-rule:nonzero;stroke:none"
             id="path522" /></g></g><g
         id="g524"><g
           id="g526"
           clip-path="url(#clipPath530)"><path
             d="m 28829.2,22864.1 c -2.2,-324.6 -250.3,-595.4 -573.7,-623.7 -1750,-153.3 -3564.3,-146.5 -5431,36.9 -323.9,31.8 -570.3,305.9 -568.2,631.4 l 2.2,341.2 c 2.1,323.5 249,593.5 571.2,623.4 1816.2,168.6 3632.2,188.4 5448,-26.6 317.7,-37.6 555.8,-309.8 553.7,-629.8 l -2.2,-352.8"
             style="fill:url(#linearGradient536);fill-opacity:1;fill-rule:nonzero;stroke:none"
             id="path538" /></g></g><path
         d="m 24169.4,23064.9 c -1.5,-220.5 -181.4,-398.1 -401.9,-396.6 -220.5,1.4 -398.1,181.3 -396.7,401.8 1.5,220.5 181.4,398.1 401.9,396.7 220.5,-1.4 398.1,-181.4 396.7,-401.9"
         style="fill:#7d97f4;fill-opacity:1;fill-rule:nonzero;stroke:none"
         id="path540" /><path
         d="m 27716.8,23041.9 c -1.4,-220.5 -181.3,-398.1 -401.8,-396.6 -220.5,1.4 -398.1,181.3 -396.7,401.8 1.4,220.5 181.3,398.1 401.8,396.7 220.5,-1.4 398.1,-181.4 396.7,-401.9"
         style="fill:#7d97f4;fill-opacity:1;fill-rule:nonzero;stroke:none"
         id="path542" /><g
         id="g544"><g
           id="g546"
           clip-path="url(#clipPath550)"><path
             d="m 21923.9,26499.8 c -0.8,-122.4 -100.7,-220.9 -223,-220.1 -122.4,0.8 -220.9,100.6 -220.2,223 0.8,122.3 100.7,220.9 223,220.1 122.4,-0.8 220.9,-100.6 220.2,-223"
             style="fill:url(#linearGradient556);fill-opacity:1;fill-rule:nonzero;stroke:none"
             id="path558" /></g></g><g
         id="g560"><g
           id="g562"
           clip-path="url(#clipPath566)"><path
             d="m 21690.4,24670.5 c 0,0 528.7,-71.1 822.5,617.7 l -138.7,290.8 c -47.3,99 -166.3,140.3 -264.7,91.9 l -304.7,-149.9 c -66.9,-32.9 -109.5,-100.8 -110,-175.4 l -4.4,-675.1"
             style="fill:url(#linearGradient572);fill-opacity:1;fill-rule:nonzero;stroke:none"
             id="path574" /></g></g><g
         id="g576"><g
           id="g578"
           clip-path="url(#clipPath582)"><path
             d="m 21745.5,26398.5 c -5.7,13.5 -26,7.5 -23.4,-6.9 l 176.1,-973.6 c 4,-22.2 18.8,-40.8 39.5,-49.7 20.7,-8.9 44.4,-6.8 63.2,5.6 l 56.6,37.2 c 47.1,30.9 65.4,91 43.5,142.9 l -355.5,844.5"
             style="fill:url(#linearGradient588);fill-opacity:1;fill-rule:nonzero;stroke:none"
             id="path590" /></g></g><g
         id="g592"><g
           id="g594"
           clip-path="url(#clipPath598)"><path
             d="m 29456.8,26451 c -0.8,-122.4 97.7,-222.3 220.1,-223 122.4,-0.8 222.2,97.7 223,220.1 0.8,122.3 -97.8,222.2 -220.1,223 -122.4,0.8 -222.2,-97.8 -223,-220.1"
             style="fill:url(#linearGradient604);fill-opacity:1;fill-rule:nonzero;stroke:none"
             id="path606" /></g></g><g
         id="g608"><g
           id="g610"
           clip-path="url(#clipPath614)"><path
             d="m 29666.5,24618.8 c 0,0 -529.6,-64.3 -814.4,628.3 l 142.5,289 c 48.5,98.4 168,138.1 265.8,88.5 l 302.7,-153.9 c 66.5,-33.8 108.2,-102.2 107.7,-176.8 l -4.3,-675.1"
             style="fill:url(#linearGradient620);fill-opacity:1;fill-rule:nonzero;stroke:none"
             id="path622" /></g></g><g
         id="g624"><g
           id="g626"
           clip-path="url(#clipPath630)"><path
             d="m 29657.1,26340.1 -187.8,-967 c -4.5,-23 -20.2,-42.3 -41.9,-51.2 -21.7,-9 -46.4,-6.5 -65.9,6.6 l -52.5,35.5 c -46.6,31.6 -64.1,91.9 -41.6,143.5 l 366.4,839.9 c 5.8,13.4 26.1,7.1 23.3,-7.3"
             style="fill:url(#linearGradient636);fill-opacity:1;fill-rule:nonzero;stroke:none"
             id="path638" /></g></g><path
         d="m 23200.8,24429.7 c -120.2,0.7 -222,93.3 -232.1,215.4 -10.6,129.2 85.5,242.5 214.6,253.1 1706.6,140.3 3265.4,135.1 4765.5,-15.9 129,-13 223,-128 210,-256.9 -13,-129 -127.6,-223.1 -257,-210 -1471.3,148.1 -3002.1,153 -4680,15.1 -7,-0.6 -14,-0.9 -21,-0.8"
         style="fill:#7d97f4;fill-opacity:1;fill-rule:nonzero;stroke:none"
         id="path640" /><path
         d="m 25704,24088.5 c -952.9,6.2 -1942.5,-42.6 -2982.5,-146.5 -325.5,-32.4 -572.6,-321.8 -574.9,-673.1 l -2.4,-380.2 c -2.3,-354 243.3,-646.9 571.3,-681.3 1903.6,-199.3 3803.9,-212.3 5648.2,-38.5 326.9,30.8 575,320.3 577.3,673.5 l 2.6,393.2 c 2.2,347 -237.1,639.1 -556.8,679.5 -868.2,109.7 -1758.3,167.4 -2682.8,173.4 z M 25571.1,22004 c -948.2,6.2 -1903.7,59.4 -2860.2,159.6 -350.7,36.7 -613.3,348.5 -610.9,725.4 l 2.5,380.2 c 2.4,373.9 266.6,682 614.6,716.8 2052.4,204.8 3908.8,196 5675.3,-27.1 341.8,-43.2 597.7,-354.2 595.3,-723.6 l -2.5,-393.2 c -2.4,-375.9 -267.8,-684.2 -617.3,-717.1 -920.5,-86.8 -1855.1,-127.1 -2796.8,-121"
         style="fill:#7d97f4;fill-opacity:1;fill-rule:nonzero;stroke:none"
         id="path642" /><g
         id="g644"><g
           id="g646"
           clip-path="url(#clipPath650)"><path
             d="m 29924.1,11267.1 h -8593.8 c -208.4,0 -377.4,169 -377.4,377.5 v 8292.3 c 0,208.4 169,377.4 377.4,377.4 h 8593.8 c 208.5,0 377.5,-169 377.5,-377.4 v -8292.3 c 0,-208.5 -169,-377.5 -377.5,-377.5"
             style="fill:url(#linearGradient656);fill-opacity:1;fill-rule:nonzero;stroke:none"
             id="path658" /></g></g><g
         id="g660"><g
           id="g662"
           clip-path="url(#clipPath666)"><path
             d="m 27592,17785.7 c 0,-57.4 -2.3,-114.3 -7.4,-170.6 -51.2,-617.9 -380.6,-1173.2 -869.9,-1537.4 -341.8,-255.1 -762.3,-416.2 -1220.1,-440.4 -1208,-63.6 -2214.6,846.8 -2214.6,2035.1 0,613.9 268.7,1167.8 695.3,1559.9 64.7,59.6 133.4,115.6 205.1,167.2 369.6,266.7 825.3,424.2 1314.2,424.2 1172.2,0 2097.4,-912.5 2097.4,-2038"
             style="fill:url(#linearGradient672);fill-opacity:1;fill-rule:nonzero;stroke:none"
             id="path674" /></g></g><path
         d="m 25436,19136.1 c -775.9,0 -1407.1,-631.3 -1407.1,-1407.1 0,-775.9 631.2,-1407.1 1407.1,-1407.1 775.9,0 1407.1,631.2 1407.1,1407.1 0,775.8 -631.2,1407.1 -1407.1,1407.1 z m 0,-2948.3 c -849.8,0 -1541.1,691.4 -1541.1,1541.2 0,849.7 691.3,1541.1 1541.1,1541.1 849.8,0 1541.1,-691.4 1541.1,-1541.1 0,-849.8 -691.3,-1541.2 -1541.1,-1541.2"
         style="fill:#ffffff;fill-opacity:1;fill-rule:nonzero;stroke:none"
         id="path676" /><path
         d="m 24894.1,18048.5 c 0,-108.6 -88.1,-196.7 -196.7,-196.7 -108.7,0 -196.7,88.1 -196.7,196.7 0,108.7 88,196.7 196.7,196.7 108.6,0 196.7,-88 196.7,-196.7"
         style="fill:#ffffff;fill-opacity:1;fill-rule:nonzero;stroke:none"
         id="path678" /><path
         d="m 26356.5,18048.5 c 0,-108.6 -88.1,-196.7 -196.7,-196.7 -108.7,0 -196.7,88.1 -196.7,196.7 0,108.7 88,196.7 196.7,196.7 108.6,0 196.7,-88 196.7,-196.7"
         style="fill:#ffffff;fill-opacity:1;fill-rule:nonzero;stroke:none"
         id="path680" /><path
         d="m 26198.3,17478.7 c 0,-335.1 -338.4,-590.1 -755.8,-590.1 -417.4,0 -755.8,255 -755.8,590.1 h 1511.6"
         style="fill:#ffffff;fill-opacity:1;fill-rule:nonzero;stroke:none"
         id="path682" /><path
         d="m 22495.3,14893.7 c -0.8,-122 -100.3,-220.3 -222.4,-219.5 -122,0.8 -220.3,100.4 -219.5,222.4 0.8,122 100.4,220.3 222.4,219.5 122.1,-0.8 220.3,-100.4 219.5,-222.4"
         style="fill:#91b3fa;fill-opacity:1;fill-rule:nonzero;stroke:none"
         id="path684" /><path
         d="m 22495.3,13554.2 c -0.8,-122 -100.3,-220.3 -222.4,-219.5 -122,0.8 -220.3,100.4 -219.5,222.4 0.8,122.1 100.4,220.3 222.4,219.5 122.1,-0.8 220.3,-100.4 219.5,-222.4"
         style="fill:#91b3fa;fill-opacity:1;fill-rule:nonzero;stroke:none"
         id="path686" /><path
         d="m 22495.3,12214.8 c -0.8,-122.1 -100.3,-220.3 -222.4,-219.5 -122,0.8 -220.3,100.4 -219.5,222.4 0.8,122 100.4,220.3 222.4,219.5 122.1,-0.8 220.3,-100.4 219.5,-222.4"
         style="fill:#91b3fa;fill-opacity:1;fill-rule:nonzero;stroke:none"
         id="path688" /><path
         d="m 22835.2,14905.2 1.1,-37.7 c 2.7,-101.8 66.3,-182.7 144.1,-183.1 l 5917.9,-8.9 c 80.3,-0.4 145.5,84.9 145.4,190.1 -0.1,103.2 -63.2,187.4 -141.9,189.5 l -5918.9,46.6 c -83.2,2.2 -150.6,-87.6 -147.7,-196.5"
         style="fill:#91b3fa;fill-opacity:1;fill-rule:nonzero;stroke:none"
         id="path690" /><path
         d="m 22835.2,13572.3 1.1,-37.7 c 2.7,-101.8 66.3,-182.7 144.1,-183.1 l 5917.9,-9 c 80.3,-0.4 145.5,84.9 145.4,190.2 -0.1,103.2 -63.2,187.4 -141.9,189.5 l -5918.9,46.6 c -83.2,2.2 -150.6,-87.6 -147.7,-196.5"
         style="fill:#91b3fa;fill-opacity:1;fill-rule:nonzero;stroke:none"
         id="path692" /><path
         d="m 22835.2,12239.3 1.1,-37.6 c 2.7,-101.9 66.3,-182.7 144.1,-183.1 l 5917.9,-9 c 80.3,-0.4 145.5,84.9 145.4,190.2 -0.1,103.2 -63.2,187.4 -141.9,189.4 l -5918.9,46.6 c -83.2,2.2 -150.6,-87.5 -147.7,-196.5"
         style="fill:#91b3fa;fill-opacity:1;fill-rule:nonzero;stroke:none"
         id="path694" /></g></g></svg>
